<?xml version="1.0" encoding="utf-8"?>
<!-- Generator: Adobe Illustrator 25.4.0, SVG Export Plug-In . SVG Version: 6.00 Build 0)  -->
<svg version="1.1" id="Layer_1" xmlns="http://www.w3.org/2000/svg" xmlns:xlink="http://www.w3.org/1999/xlink" x="0px" y="0px"
	 viewBox="0 0 871.85 303.6" enable-background="new 0 0 871.85 303.6" xml:space="preserve">
<g>
	<g>
		<g>
			<path fill="#656C73" d="M13.98,218.06c-3.49-2-6.24-4.75-8.26-8.26c-2.02-3.51-3.03-7.38-3.03-11.62s1.01-8.12,3.03-11.62
				s4.77-6.26,8.26-8.26c3.49-2,7.29-3,11.41-3c3.22,0,6.25,0.57,9.08,1.71c2.83,1.14,5.17,2.75,7.01,4.83l-3.73,3.73
				c-1.39-1.71-3.17-3.03-5.35-3.95c-2.18-0.92-4.52-1.38-7-1.38c-3.06,0-5.92,0.74-8.6,2.23c-2.67,1.49-4.81,3.59-6.42,6.3
				c-1.61,2.71-2.42,5.84-2.42,9.39c0,3.55,0.81,6.68,2.42,9.39c1.61,2.71,3.75,4.81,6.42,6.3c2.67,1.49,5.54,2.23,8.6,2.23
				c2.94,0,5.39-0.46,7.37-1.38c1.98-0.92,3.7-2.13,5.17-3.64c1.06-1.14,1.92-2.53,2.57-4.16c0.65-1.63,1.04-3.41,1.16-5.32H25.51
				v-4.83h21.05c0.2,1.14,0.31,2.2,0.31,3.18c0,2.69-0.43,5.31-1.28,7.86c-0.86,2.55-2.22,4.78-4.1,6.7
				c-4.12,4.37-9.48,6.55-16.09,6.55C21.27,221.05,17.47,220.06,13.98,218.06z"/>
			<path fill="#656C73" d="M58.3,218.94c-2.37-1.41-4.21-3.34-5.54-5.81c-1.33-2.47-1.99-5.21-1.99-8.23s0.66-5.76,1.99-8.23
				c1.32-2.47,3.17-4.41,5.54-5.81c2.37-1.41,5.04-2.11,8.01-2.11c2.98,0,5.66,0.7,8.04,2.11c2.39,1.41,4.24,3.34,5.57,5.81
				c1.32,2.47,1.99,5.21,1.99,8.23s-0.66,5.76-1.99,8.23c-1.33,2.47-3.18,4.4-5.57,5.81c-2.39,1.41-5.07,2.11-8.04,2.11
				C63.34,221.05,60.67,220.35,58.3,218.94z M71.46,214.94c1.59-0.94,2.87-2.27,3.82-4.01c0.96-1.73,1.44-3.74,1.44-6.03
				s-0.48-4.29-1.44-6.03c-0.96-1.73-2.23-3.07-3.82-4.01c-1.59-0.94-3.3-1.41-5.14-1.41c-1.8,0-3.49,0.47-5.08,1.41
				c-1.59,0.94-2.87,2.27-3.82,4.01c-0.96,1.73-1.44,3.74-1.44,6.03s0.48,4.29,1.44,6.03c0.96,1.73,2.23,3.07,3.82,4.01
				c1.59,0.94,3.28,1.41,5.08,1.41C68.15,216.34,69.87,215.88,71.46,214.94z"/>
			<path fill="#656C73" d="M92.99,218.94c-2.37-1.41-4.21-3.34-5.54-5.81c-1.33-2.47-1.99-5.21-1.99-8.23s0.66-5.76,1.99-8.23
				c1.32-2.47,3.17-4.41,5.54-5.81c2.37-1.41,5.04-2.11,8.01-2.11c2.98,0,5.66,0.7,8.04,2.11c2.39,1.41,4.24,3.34,5.57,5.81
				c1.32,2.47,1.99,5.21,1.99,8.23s-0.66,5.76-1.99,8.23c-1.33,2.47-3.18,4.4-5.57,5.81c-2.39,1.41-5.07,2.11-8.04,2.11
				C98.03,221.05,95.36,220.35,92.99,218.94z M106.15,214.94c1.59-0.94,2.87-2.27,3.82-4.01c0.96-1.73,1.44-3.74,1.44-6.03
				s-0.48-4.29-1.44-6.03c-0.96-1.73-2.23-3.07-3.82-4.01c-1.59-0.94-3.3-1.41-5.14-1.41c-1.8,0-3.49,0.47-5.08,1.41
				c-1.59,0.94-2.87,2.27-3.82,4.01c-0.96,1.73-1.44,3.74-1.44,6.03s0.48,4.29,1.44,6.03c0.96,1.73,2.23,3.07,3.82,4.01
				c1.59,0.94,3.28,1.41,5.08,1.41C102.84,216.34,104.55,215.88,106.15,214.94z"/>
			<path fill="#656C73" d="M126.21,231.64c-2.32-1.75-3.9-3.79-4.71-6.12l4.83-2.02c0.61,1.79,1.7,3.25,3.27,4.38
				c1.57,1.12,3.44,1.68,5.6,1.68c3.22,0,5.7-0.93,7.43-2.8c1.73-1.87,2.6-4.48,2.6-7.84v-3.24h-0.24
				c-0.98,1.55-2.39,2.84-4.22,3.85c-1.84,1.02-3.92,1.53-6.24,1.53c-2.57,0-4.96-0.7-7.16-2.09c-2.2-1.39-3.96-3.32-5.26-5.77
				c-1.31-2.46-1.96-5.22-1.96-8.29s0.65-5.83,1.96-8.29c1.31-2.46,3.06-4.38,5.26-5.77c2.2-1.39,4.59-2.09,7.16-2.09
				c2.32,0,4.4,0.51,6.24,1.53c1.84,1.02,3.24,2.3,4.22,3.85h0.24v-4.41h4.96v29.12c0,3.34-0.65,6.18-1.96,8.5
				c-1.31,2.33-3.09,4.06-5.35,5.2c-2.26,1.14-4.82,1.71-7.68,1.71C131.53,234.27,128.54,233.39,126.21,231.64z M140.28,214.96
				c1.51-0.92,2.72-2.24,3.64-3.97c0.92-1.72,1.38-3.75,1.38-6.09s-0.46-4.38-1.38-6.12c-0.92-1.74-2.13-3.06-3.64-3.97
				c-1.51-0.9-3.16-1.35-4.96-1.35c-1.8,0-3.45,0.46-4.96,1.38c-1.51,0.92-2.72,2.24-3.64,3.97c-0.92,1.72-1.38,3.75-1.38,6.09
				s0.46,4.37,1.38,6.09c0.92,1.72,2.13,3.04,3.64,3.97c1.51,0.92,3.16,1.38,4.96,1.38C137.12,216.34,138.77,215.88,140.28,214.96z"
				/>
			<path fill="#656C73" d="M157.23,176.27h5.2v43.8h-5.2V176.27z"/>
			<path fill="#656C73" d="M174.76,218.97c-2.3-1.39-4.11-3.3-5.41-5.75c-1.31-2.45-1.96-5.22-1.96-8.32c0-2.94,0.61-5.64,1.84-8.11
				c1.22-2.47,2.97-4.42,5.23-5.87c2.26-1.45,4.86-2.17,7.8-2.17c2.94,0,5.52,0.66,7.74,1.99c2.22,1.33,3.93,3.19,5.11,5.6
				c1.18,2.41,1.77,5.18,1.77,8.32c0,0.57-0.04,0.98-0.12,1.22h-24.1c0.08,2.28,0.63,4.21,1.65,5.78c1.02,1.57,2.29,2.74,3.82,3.52
				c1.53,0.78,3.11,1.16,4.74,1.16c3.83,0,6.79-1.88,8.87-5.63l4.59,2.2c-1.31,2.45-3.11,4.42-5.41,5.9
				c-2.3,1.49-5.07,2.23-8.29,2.23C179.68,221.05,177.06,220.36,174.76,218.97z M191.37,201.54c-0.08-1.22-0.43-2.45-1.04-3.67
				s-1.6-2.26-2.97-3.12c-1.37-0.86-3.11-1.28-5.23-1.28c-2.28,0-4.26,0.73-5.93,2.2c-1.67,1.47-2.73,3.43-3.18,5.87H191.37z"/>
			<path fill="#656C73" d="M216.76,176.27h13.28c4.49,0,8.4,0.93,11.75,2.78c3.34,1.86,5.91,4.44,7.71,7.74
				c1.79,3.3,2.69,7.1,2.69,11.38c0,4.28-0.9,8.08-2.69,11.38c-1.8,3.3-4.36,5.88-7.71,7.74c-3.34,1.86-7.26,2.78-11.75,2.78h-13.28
				V176.27z M230.03,215.12c5.18,0,9.28-1.49,12.3-4.47c3.02-2.98,4.53-7.14,4.53-12.48s-1.51-9.5-4.53-12.48
				c-3.02-2.98-7.12-4.47-12.3-4.47h-8.08v33.89H230.03z"/>
			<path fill="#656C73" d="M263.95,218.97c-2.3-1.39-4.11-3.3-5.41-5.75c-1.31-2.45-1.96-5.22-1.96-8.32c0-2.94,0.61-5.64,1.84-8.11
				c1.22-2.47,2.97-4.42,5.23-5.87c2.26-1.45,4.86-2.17,7.8-2.17c2.94,0,5.52,0.66,7.74,1.99c2.22,1.33,3.93,3.19,5.11,5.6
				c1.18,2.41,1.77,5.18,1.77,8.32c0,0.57-0.04,0.98-0.12,1.22h-24.1c0.08,2.28,0.63,4.21,1.65,5.78c1.02,1.57,2.29,2.74,3.82,3.52
				c1.53,0.78,3.11,1.16,4.74,1.16c3.83,0,6.79-1.88,8.87-5.63l4.59,2.2c-1.31,2.45-3.11,4.42-5.41,5.9
				c-2.3,1.49-5.07,2.23-8.29,2.23C268.88,221.05,266.26,220.36,263.95,218.97z M280.56,201.54c-0.08-1.22-0.43-2.45-1.04-3.67
				s-1.6-2.26-2.97-3.12c-1.37-0.86-3.11-1.28-5.23-1.28c-2.28,0-4.26,0.73-5.93,2.2c-1.67,1.47-2.73,3.43-3.18,5.87H280.56z"/>
			<path fill="#656C73" d="M287.29,189.73h5.63l9.3,24.23h0.12l9.42-24.23h5.51l-12.42,30.34h-5.26L287.29,189.73z"/>
			<path fill="#656C73" d="M326.78,218.97c-2.3-1.39-4.11-3.3-5.41-5.75c-1.31-2.45-1.96-5.22-1.96-8.32c0-2.94,0.61-5.64,1.84-8.11
				c1.22-2.47,2.97-4.42,5.23-5.87c2.26-1.45,4.86-2.17,7.8-2.17c2.94,0,5.52,0.66,7.74,1.99c2.22,1.33,3.93,3.19,5.11,5.6
				c1.18,2.41,1.77,5.18,1.77,8.32c0,0.57-0.04,0.98-0.12,1.22h-24.1c0.08,2.28,0.63,4.21,1.65,5.78c1.02,1.57,2.29,2.74,3.82,3.52
				c1.53,0.78,3.11,1.16,4.74,1.16c3.83,0,6.79-1.88,8.87-5.63l4.59,2.2c-1.31,2.45-3.11,4.42-5.41,5.9
				c-2.3,1.49-5.07,2.23-8.29,2.23C331.71,221.05,329.09,220.36,326.78,218.97z M343.39,201.54c-0.08-1.22-0.43-2.45-1.04-3.67
				s-1.6-2.26-2.97-3.12c-1.37-0.86-3.11-1.28-5.23-1.28c-2.28,0-4.26,0.73-5.93,2.2c-1.67,1.47-2.73,3.43-3.18,5.87H343.39z"/>
			<path fill="#656C73" d="M354.16,176.27h5.2v43.8h-5.2V176.27z"/>
			<path fill="#656C73" d="M371.84,218.94c-2.37-1.41-4.21-3.34-5.54-5.81c-1.33-2.47-1.99-5.21-1.99-8.23s0.66-5.76,1.99-8.23
				c1.32-2.47,3.17-4.41,5.54-5.81c2.36-1.41,5.04-2.11,8.01-2.11c2.98,0,5.66,0.7,8.04,2.11s4.24,3.34,5.57,5.81
				c1.33,2.47,1.99,5.21,1.99,8.23s-0.66,5.76-1.99,8.23c-1.32,2.47-3.18,4.4-5.57,5.81s-5.07,2.11-8.04,2.11
				C376.88,221.05,374.21,220.35,371.84,218.94z M385,214.94c1.59-0.94,2.87-2.27,3.82-4.01c0.96-1.73,1.44-3.74,1.44-6.03
				s-0.48-4.29-1.44-6.03c-0.96-1.73-2.23-3.07-3.82-4.01c-1.59-0.94-3.3-1.41-5.14-1.41c-1.79,0-3.49,0.47-5.08,1.41
				s-2.87,2.27-3.82,4.01c-0.96,1.73-1.44,3.74-1.44,6.03s0.48,4.29,1.44,6.03c0.96,1.73,2.23,3.07,3.82,4.01s3.28,1.41,5.08,1.41
				C381.69,216.34,383.41,215.88,385,214.94z"/>
			<path fill="#656C73" d="M400.17,189.73h4.96v4.47h0.25c0.98-1.55,2.39-2.84,4.22-3.88c1.84-1.04,3.96-1.56,6.36-1.56
				c2.61,0,5.02,0.7,7.22,2.11s3.96,3.33,5.26,5.78c1.3,2.45,1.96,5.2,1.96,8.26c0,3.06-0.65,5.81-1.96,8.26
				c-1.31,2.45-3.06,4.37-5.26,5.78s-4.61,2.11-7.22,2.11c-2.41,0-4.54-0.52-6.39-1.56c-1.86-1.04-3.25-2.36-4.19-3.95h-0.25
				l0.25,4.22v13.52h-5.2V189.73z M420.14,214.94c1.53-0.94,2.75-2.27,3.67-4.01c0.92-1.73,1.38-3.74,1.38-6.03
				s-0.46-4.29-1.38-6.03c-0.92-1.73-2.14-3.07-3.67-4.01s-3.19-1.41-4.99-1.41c-1.79,0-3.46,0.46-4.99,1.38
				c-1.53,0.92-2.75,2.24-3.67,3.98c-0.92,1.73-1.38,3.76-1.38,6.09c0,2.28,0.46,4.3,1.38,6.06c0.92,1.75,2.14,3.09,3.67,4.01
				c1.53,0.92,3.19,1.38,4.99,1.38C416.95,216.34,418.62,215.88,420.14,214.94z"/>
			<path fill="#656C73" d="M442.54,218.97c-2.3-1.39-4.11-3.3-5.41-5.75c-1.31-2.45-1.96-5.22-1.96-8.32c0-2.94,0.61-5.64,1.83-8.11
				c1.22-2.47,2.97-4.42,5.23-5.87c2.26-1.45,4.86-2.17,7.8-2.17s5.52,0.66,7.74,1.99c2.22,1.33,3.92,3.19,5.11,5.6
				c1.18,2.41,1.77,5.18,1.77,8.32c0,0.57-0.04,0.98-0.12,1.22h-24.1c0.08,2.28,0.63,4.21,1.65,5.78c1.02,1.57,2.29,2.74,3.82,3.52
				c1.53,0.78,3.11,1.16,4.74,1.16c3.83,0,6.79-1.88,8.87-5.63l4.59,2.2c-1.31,2.45-3.11,4.42-5.41,5.9
				c-2.3,1.49-5.07,2.23-8.29,2.23C447.46,221.05,444.84,220.36,442.54,218.97z M459.15,201.54c-0.08-1.22-0.43-2.45-1.04-3.67
				c-0.61-1.22-1.6-2.26-2.97-3.12s-3.11-1.28-5.23-1.28c-2.29,0-4.26,0.73-5.93,2.2c-1.67,1.47-2.73,3.43-3.18,5.87H459.15z"/>
			<path fill="#656C73" d="M469.91,189.73h4.96v4.96h0.24c0.57-1.67,1.74-3.08,3.52-4.22c1.77-1.14,3.54-1.71,5.29-1.71
				c1.26,0,2.45,0.2,3.55,0.61v5.57c-1.1-0.61-2.53-0.92-4.28-0.92c-1.43,0-2.76,0.42-4.01,1.26s-2.23,1.95-2.97,3.34
				s-1.1,2.9-1.1,4.54v16.92h-5.2V189.73z"/>
			<path fill="#656C73" d="M510.26,219.68c-2.06-0.92-3.88-2.26-5.44-4.04c-1.57-1.77-2.7-3.92-3.4-6.45l4.96-2.02
				c0.69,2.61,1.98,4.75,3.85,6.42c1.88,1.67,4.06,2.51,6.55,2.51c2.57,0,4.73-0.68,6.49-2.05c1.75-1.37,2.63-3.23,2.63-5.6
				c0-2.04-0.75-3.72-2.23-5.05c-1.49-1.33-3.93-2.56-7.31-3.7l-2.75-0.98c-3.1-1.1-5.63-2.55-7.59-4.34
				c-1.96-1.79-2.94-4.28-2.94-7.46c0-2.08,0.57-4.01,1.71-5.78c1.14-1.77,2.72-3.19,4.74-4.25c2.02-1.06,4.29-1.59,6.82-1.59
				c2.53,0,4.74,0.47,6.64,1.41c1.9,0.94,3.41,2.08,4.53,3.43c1.12,1.35,1.89,2.67,2.29,3.98l-4.83,2.08
				c-0.45-1.55-1.39-2.93-2.81-4.13c-1.43-1.2-3.32-1.8-5.69-1.8c-2.24,0-4.16,0.63-5.75,1.9c-1.59,1.26-2.39,2.86-2.39,4.77
				c0,1.71,0.67,3.11,2.02,4.19c1.35,1.08,3.38,2.09,6.12,3.03l2.81,0.98c3.71,1.35,6.62,3.03,8.72,5.05
				c2.1,2.02,3.15,4.76,3.15,8.23c0,2.81-0.72,5.18-2.17,7.1c-1.45,1.92-3.27,3.33-5.48,4.22c-2.2,0.9-4.49,1.35-6.85,1.35
				C514.45,221.05,512.32,220.6,510.26,219.68z"/>
			<path fill="#656C73" d="M543.79,220.43c-1.04-0.42-1.93-0.98-2.66-1.68c-0.82-0.79-1.42-1.71-1.8-2.77
				c-0.39-1.06-0.58-2.32-0.58-3.77v-17.76h-5.38v-4.71h5.38v-9.05h5.14v9.05h7.46v4.71h-7.46v16.52c0,1.75,0.35,3.05,1.04,3.88
				c0.69,0.92,1.75,1.38,3.18,1.38c1.26,0,2.37-0.28,3.3-0.86v5.02c-0.65,0.25-1.27,0.42-1.87,0.52c-0.59,0.1-1.38,0.15-2.36,0.15
				C545.96,221.05,544.83,220.85,543.79,220.43z"/>
			<path fill="#656C73" d="M559.45,217.81c-1.94-2.16-2.91-5.16-2.91-8.99v-19.09h5.2v18.23c0,5.59,2.51,8.38,7.52,8.38
				c1.67,0,3.17-0.47,4.5-1.41c1.32-0.94,2.34-2.16,3.06-3.67c0.71-1.51,1.07-3.1,1.07-4.77v-16.76h5.14v30.34h-4.89v-4.53h-0.25
				c-0.9,1.55-2.25,2.86-4.07,3.92c-1.82,1.06-3.76,1.59-5.84,1.59C564.23,221.05,561.38,219.97,559.45,217.81z"/>
			<path fill="#656C73" d="M595.27,218.97c-2.2-1.39-3.96-3.31-5.26-5.78c-1.31-2.47-1.96-5.23-1.96-8.29
				c0-3.06,0.65-5.82,1.96-8.29c1.3-2.47,3.06-4.39,5.26-5.78c2.2-1.39,4.61-2.08,7.22-2.08c2.36,0,4.49,0.52,6.36,1.56
				s3.28,2.34,4.22,3.88h0.24l-0.24-4.16v-13.76h5.14v43.8h-4.89v-4.53h-0.24c-0.94,1.59-2.35,2.91-4.22,3.95s-4,1.56-6.36,1.56
				C599.87,221.05,597.47,220.36,595.27,218.97z M608.27,214.97c1.53-0.92,2.75-2.25,3.67-4.01c0.92-1.75,1.38-3.77,1.38-6.06
				c0-2.33-0.46-4.35-1.38-6.09c-0.92-1.73-2.14-3.06-3.67-3.98c-1.53-0.92-3.19-1.38-4.99-1.38c-1.79,0-3.46,0.47-4.99,1.41
				c-1.53,0.94-2.75,2.27-3.67,4.01c-0.92,1.73-1.38,3.74-1.38,6.03s0.46,4.29,1.38,6.03c0.92,1.73,2.14,3.07,3.67,4.01
				c1.53,0.94,3.19,1.41,4.99,1.41C605.07,216.34,606.74,215.89,608.27,214.97z"/>
			<path fill="#656C73" d="M630.6,218.97c-2.3-1.39-4.11-3.3-5.41-5.75c-1.31-2.45-1.96-5.22-1.96-8.32c0-2.94,0.61-5.64,1.83-8.11
				c1.22-2.47,2.97-4.42,5.23-5.87c2.26-1.45,4.86-2.17,7.8-2.17s5.52,0.66,7.74,1.99c2.22,1.33,3.92,3.19,5.11,5.6
				c1.18,2.41,1.77,5.18,1.77,8.32c0,0.57-0.04,0.98-0.12,1.22h-24.1c0.08,2.28,0.63,4.21,1.65,5.78c1.02,1.57,2.29,2.74,3.82,3.52
				c1.53,0.78,3.11,1.16,4.74,1.16c3.83,0,6.79-1.88,8.87-5.63l4.59,2.2c-1.31,2.45-3.11,4.42-5.41,5.9
				c-2.3,1.49-5.07,2.23-8.29,2.23C635.52,221.05,632.9,220.36,630.6,218.97z M647.21,201.54c-0.08-1.22-0.43-2.45-1.04-3.67
				c-0.61-1.22-1.6-2.26-2.97-3.12s-3.11-1.28-5.23-1.28c-2.29,0-4.26,0.73-5.93,2.2c-1.67,1.47-2.73,3.43-3.18,5.87H647.21z"/>
			<path fill="#656C73" d="M657.97,189.73h4.96v4.53h0.24c0.86-1.55,2.2-2.85,4.04-3.92c1.83-1.06,3.79-1.59,5.87-1.59
				c3.71,0,6.54,1.08,8.47,3.24c1.94,2.16,2.91,5.12,2.91,8.87v19.21h-5.14v-18.42c0-5.46-2.55-8.2-7.65-8.2
				c-1.63,0-3.1,0.47-4.41,1.41s-2.31,2.16-3.03,3.67c-0.71,1.51-1.07,3.1-1.07,4.77v16.76h-5.2V189.73z"/>
			<path fill="#656C73" d="M698.01,220.43c-1.04-0.42-1.93-0.98-2.66-1.68c-0.82-0.79-1.42-1.71-1.8-2.77
				c-0.39-1.06-0.58-2.32-0.58-3.77v-17.76h-5.38v-4.71h5.38v-9.05h5.14v9.05h7.46v4.71h-7.46v16.52c0,1.75,0.35,3.05,1.04,3.88
				c0.69,0.92,1.75,1.38,3.18,1.38c1.26,0,2.37-0.28,3.3-0.86v5.02c-0.65,0.25-1.27,0.42-1.87,0.52c-0.59,0.1-1.38,0.15-2.36,0.15
				C700.19,221.05,699.05,220.85,698.01,220.43z"/>
			<path fill="#656C73" d="M733.41,218.06c-3.47-2-6.19-4.75-8.17-8.26c-1.98-3.51-2.97-7.38-2.97-11.62s0.99-8.12,2.97-11.62
				c1.98-3.51,4.7-6.26,8.17-8.26c3.47-2,7.3-3,11.5-3c3.3,0,6.31,0.62,9.02,1.87c2.71,1.25,5.05,3.01,7,5.29l-3.67,3.61
				c-1.63-2-3.46-3.47-5.48-4.4c-2.02-0.94-4.31-1.41-6.88-1.41c-3.14,0-6.04,0.74-8.69,2.23c-2.65,1.49-4.76,3.59-6.33,6.3
				c-1.57,2.71-2.36,5.84-2.36,9.39c0,3.55,0.79,6.68,2.36,9.39c1.57,2.71,3.68,4.81,6.33,6.3c2.65,1.49,5.55,2.23,8.69,2.23
				c5.34,0,9.87-2.18,13.58-6.55l3.73,3.67c-2,2.41-4.49,4.31-7.46,5.72c-2.98,1.41-6.26,2.11-9.85,2.11
				C740.71,221.05,736.87,220.06,733.41,218.06z"/>
			<path fill="#656C73" d="M767.3,176.27h5.2v43.8h-5.2V176.27z"/>
			<path fill="#656C73" d="M782.13,217.81c-1.94-2.16-2.91-5.16-2.91-8.99v-19.09h5.2v18.23c0,5.59,2.51,8.38,7.52,8.38
				c1.67,0,3.17-0.47,4.5-1.41c1.32-0.94,2.34-2.16,3.06-3.67c0.71-1.51,1.07-3.1,1.07-4.77v-16.76h5.14v30.34h-4.89v-4.53h-0.25
				c-0.9,1.55-2.25,2.86-4.07,3.92c-1.82,1.06-3.76,1.59-5.84,1.59C786.92,221.05,784.07,219.97,782.13,217.81z"/>
			<path fill="#656C73" d="M822.14,219.5c-1.86-1.04-3.25-2.36-4.19-3.95h-0.24v4.53h-4.96v-43.8h5.2v13.76l-0.24,4.16h0.24
				c0.98-1.55,2.39-2.84,4.22-3.88c1.83-1.04,3.96-1.56,6.36-1.56c2.61,0,5.02,0.7,7.22,2.11c2.2,1.41,3.96,3.33,5.26,5.78
				c1.3,2.45,1.96,5.2,1.96,8.26c0,3.06-0.65,5.81-1.96,8.26c-1.31,2.45-3.06,4.37-5.26,5.78c-2.2,1.41-4.61,2.11-7.22,2.11
				C826.13,221.05,824,220.54,822.14,219.5z M832.73,214.94c1.53-0.94,2.75-2.27,3.67-4.01c0.92-1.73,1.38-3.74,1.38-6.03
				s-0.46-4.29-1.38-6.03c-0.92-1.73-2.14-3.07-3.67-4.01c-1.53-0.94-3.19-1.41-4.99-1.41c-1.8,0-3.46,0.46-4.99,1.38
				c-1.53,0.92-2.75,2.24-3.67,3.98c-0.92,1.73-1.38,3.76-1.38,6.09c0,2.28,0.46,4.3,1.38,6.06s2.14,3.09,3.67,4.01
				s3.19,1.38,4.99,1.38C829.54,216.34,831.2,215.88,832.73,214.94z"/>
			<path fill="#656C73" d="M850.44,218.61c-2.24-1.63-3.81-3.65-4.71-6.06l4.59-2.02c0.82,1.92,1.97,3.39,3.46,4.41
				c1.49,1.02,3.11,1.53,4.86,1.53c1.96,0,3.58-0.43,4.86-1.29c1.28-0.86,1.93-1.9,1.93-3.12c0-1.18-0.48-2.16-1.44-2.94
				c-0.96-0.77-2.6-1.45-4.92-2.02l-4.16-1.04c-2.29-0.53-4.23-1.49-5.84-2.88c-1.61-1.39-2.42-3.22-2.42-5.51
				c0-1.88,0.54-3.49,1.62-4.83c1.08-1.35,2.52-2.36,4.31-3.06c1.79-0.69,3.75-1.04,5.87-1.04c2.61,0,4.99,0.6,7.13,1.8
				c2.14,1.2,3.66,2.91,4.56,5.11l-4.59,1.96c-0.65-1.47-1.64-2.55-2.97-3.24c-1.33-0.69-2.8-1.04-4.44-1.04
				c-1.59,0-3.03,0.39-4.31,1.16c-1.29,0.78-1.93,1.77-1.93,3c0,1.06,0.42,1.9,1.25,2.51s2.17,1.16,4.01,1.65l4.53,1.1
				c3.02,0.78,5.27,1.93,6.76,3.46c1.49,1.53,2.23,3.35,2.23,5.47c0,1.75-0.51,3.34-1.53,4.77c-1.02,1.43-2.45,2.55-4.28,3.36
				c-1.83,0.82-3.92,1.22-6.24,1.22C855.42,221.05,852.68,220.24,850.44,218.61z"/>
		</g>
	</g>
	<g>
		<g>
			<path fill="#EA4335" d="M372.66,58.66l39.22-22.65c9.23-5.33,12.39-17.13,7.06-26.36c-5.33-9.23-17.13-12.39-26.36-7.06
				l-67.77,39.13L372.66,58.66z"/>
		</g>
		<g>
			<path fill="#4285F4" d="M402.22,116.86c6.67,0,13.16-3.46,16.73-9.65c5.33-9.23,2.17-21.03-7.06-26.36l-67.77-39.13
				c-9.23-5.33-21.03-2.17-26.36,7.06c-5.33,9.23-2.17,21.03,7.06,26.36l67.77,39.13C395.63,116.03,398.95,116.86,402.22,116.86z"/>
		</g>
		<g>
			<path fill="#FBBC04" d="M469.64,116.86c3.27,0,6.59-0.83,9.63-2.59l67.77-39.13L499.8,57.85l-39.83,23
				c-9.23,5.33-12.39,17.13-7.06,26.36C456.48,113.4,462.97,116.86,469.64,116.86z"/>
		</g>
		<g>
			<path fill="#0F9D58" d="M537.37,77.73c6.67,0,13.16-3.46,16.73-9.65c5.33-9.23,2.17-21.03-7.06-26.36L479.27,2.59
				c-9.23-5.33-21.03-2.17-26.36,7.06c-5.33,9.23-2.17,21.03,7.06,26.36l67.77,39.13C530.78,76.9,534.1,77.73,537.37,77.73z"/>
		</g>
	</g>
</g>
<g>
	<g>
		<g>
			<path fill="#656C73" d="M48.44,261.93h4.13l11.7,30.79h-4.04l-3.05-8.47H43.88l-3.1,8.47h-4.04L48.44,261.93z M55.88,280.81
				l-4.09-11.1l-1.2-3.31h-0.17l-1.25,3.31l-4.04,11.1H55.88z"/>
			<path fill="#656C73" d="M67.54,271.39h3.48v3.18h0.17c0.6-1.09,1.54-2.01,2.82-2.75c1.28-0.75,2.57-1.12,3.89-1.12
				c1.61,0,2.99,0.38,4.15,1.14s2,1.8,2.52,3.12c0.8-1.29,1.83-2.32,3.1-3.1s2.71-1.16,4.34-1.16c2.5,0,4.37,0.76,5.63,2.28
				c1.26,1.52,1.89,3.61,1.89,6.28v13.46h-3.66v-12.9c0-2.09-0.39-3.58-1.18-4.47c-0.79-0.89-2-1.33-3.63-1.33
				c-1.09,0-2.07,0.32-2.95,0.97c-0.88,0.65-1.56,1.5-2.04,2.56c-0.49,1.06-0.73,2.18-0.73,3.36v11.83h-3.61v-12.9
				c0-2.09-0.4-3.58-1.2-4.47c-0.8-0.89-2.01-1.33-3.61-1.33c-1.12,0-2.11,0.33-2.97,0.99c-0.86,0.66-1.53,1.52-2.02,2.58
				c-0.49,1.06-0.73,2.19-0.73,3.4v11.74h-3.66V271.39z"/>
			<path fill="#656C73" d="M104.7,271.39h3.48v3.48h0.17c0.4-1.18,1.23-2.17,2.47-2.97s2.49-1.2,3.72-1.2c0.89,0,1.72,0.14,2.5,0.43
				v3.91c-0.77-0.43-1.78-0.65-3.01-0.65c-1,0-1.94,0.29-2.82,0.88c-0.88,0.59-1.57,1.37-2.09,2.35c-0.52,0.98-0.77,2.04-0.77,3.19
				v11.9h-3.66V271.39z"/>
			<path fill="#656C73" d="M120.74,266.05c-0.52-0.52-0.77-1.13-0.77-1.85s0.26-1.33,0.77-1.85c0.52-0.52,1.13-0.77,1.85-0.77
				c0.72,0,1.33,0.26,1.85,0.77c0.52,0.52,0.77,1.13,0.77,1.85s-0.25,1.33-0.75,1.85c-0.5,0.52-1.13,0.77-1.87,0.77
				C121.87,266.83,121.25,266.57,120.74,266.05z M120.78,271.39h3.61v21.33h-3.61V271.39z"/>
			<path fill="#656C73" d="M135.68,292.97c-0.73-0.29-1.35-0.69-1.87-1.18c-0.57-0.56-1-1.21-1.27-1.95
				c-0.27-0.75-0.41-1.63-0.41-2.65V274.7h-3.79v-3.31h3.79v-6.37h3.61v6.37H141v3.31h-5.25v11.62c0,1.23,0.24,2.14,0.73,2.73
				c0.49,0.65,1.23,0.97,2.24,0.97c0.89,0,1.66-0.2,2.32-0.6v3.53c-0.46,0.17-0.9,0.29-1.31,0.37c-0.42,0.07-0.97,0.11-1.66,0.11
				C137.21,293.41,136.42,293.26,135.68,292.97z"/>
			<path fill="#656C73" d="M147.55,292.48c-1.25-0.62-2.22-1.48-2.92-2.58c-0.7-1.1-1.05-2.34-1.05-3.72c0-2.26,0.85-4.03,2.56-5.29
				c1.71-1.26,3.89-1.89,6.56-1.89c1.32,0,2.51,0.14,3.57,0.43c1.06,0.29,1.91,0.6,2.54,0.95v-1.12c0-1.03-0.27-1.96-0.8-2.77
				c-0.53-0.82-1.24-1.45-2.13-1.89s-1.85-0.67-2.88-0.67c-2.44,0-4.3,0.99-5.59,2.97l-3.05-2.02c0.89-1.32,2.06-2.34,3.53-3.08
				c1.46-0.73,3.11-1.1,4.95-1.1c2.92,0,5.23,0.79,6.92,2.37c1.69,1.58,2.54,3.7,2.54,6.37v13.29h-3.48v-3.14h-0.17
				c-0.69,1.09-1.62,2-2.8,2.73c-1.18,0.73-2.54,1.1-4.09,1.1C150.2,293.41,148.8,293.1,147.55,292.48z M155.32,289.28
				c1.03-0.6,1.87-1.42,2.52-2.45c0.64-1.03,0.97-2.15,0.97-3.35c-1.61-1.03-3.46-1.55-5.55-1.55c-1.81,0-3.25,0.41-4.32,1.23
				s-1.61,1.86-1.61,3.12c0,1.15,0.47,2.09,1.42,2.82c0.95,0.73,2.05,1.1,3.31,1.1C153.19,290.18,154.28,289.88,155.32,289.28z"/>
			<path fill="#656C73" d="M180.76,292.44c-1.45-0.65-2.72-1.59-3.83-2.84s-1.9-2.76-2.39-4.54l3.48-1.42
				c0.49,1.84,1.39,3.34,2.71,4.52c1.32,1.18,2.85,1.76,4.6,1.76c1.81,0,3.33-0.48,4.56-1.44c1.23-0.96,1.85-2.27,1.85-3.94
				c0-1.43-0.52-2.62-1.57-3.55c-1.05-0.93-2.76-1.8-5.14-2.6l-1.94-0.69c-2.18-0.77-3.96-1.79-5.33-3.05s-2.06-3.01-2.06-5.25
				c0-1.46,0.4-2.82,1.2-4.06c0.8-1.25,1.91-2.24,3.33-2.99c1.42-0.75,3.02-1.12,4.8-1.12c1.78,0,3.33,0.33,4.67,0.99
				c1.33,0.66,2.39,1.46,3.18,2.41c0.79,0.95,1.33,1.88,1.61,2.8l-3.4,1.46c-0.32-1.09-0.98-2.06-1.98-2.9c-1-0.84-2.34-1.27-4-1.27
				c-1.58,0-2.92,0.45-4.04,1.33c-1.12,0.89-1.68,2.01-1.68,3.36c0,1.2,0.47,2.19,1.42,2.95c0.95,0.76,2.38,1.47,4.3,2.13l1.98,0.69
				c2.61,0.95,4.65,2.13,6.13,3.55c1.48,1.42,2.21,3.35,2.21,5.78c0,1.98-0.51,3.64-1.53,4.99c-1.02,1.35-2.3,2.34-3.85,2.97
				c-1.55,0.63-3.15,0.95-4.82,0.95C183.7,293.41,182.2,293.09,180.76,292.44z"/>
			<path fill="#656C73" d="M204.09,291.92c-1.66-0.99-2.96-2.35-3.89-4.09c-0.93-1.73-1.4-3.66-1.4-5.78c0-2.15,0.47-4.09,1.4-5.81
				c0.93-1.72,2.23-3.08,3.89-4.06s3.53-1.48,5.59-1.48c2.32,0,4.27,0.56,5.85,1.68s2.72,2.57,3.44,4.34l-3.31,1.42
				c-1.15-2.75-3.21-4.13-6.19-4.13c-1.2,0-2.34,0.34-3.42,1.01s-1.94,1.62-2.6,2.84c-0.66,1.22-0.99,2.62-0.99,4.19
				c0,1.55,0.33,2.94,0.99,4.17c0.66,1.23,1.53,2.19,2.6,2.86s2.21,1.01,3.42,1.01c1.52,0,2.82-0.36,3.91-1.08
				c1.09-0.72,1.91-1.73,2.45-3.05l3.23,1.38c-0.72,1.78-1.88,3.23-3.48,4.37c-1.61,1.13-3.57,1.7-5.89,1.7
				C207.62,293.41,205.75,292.91,204.09,291.92z"/>
			<path fill="#656C73" d="M222.93,261.93h3.66v9.63l-0.17,3.05h0.17c0.6-1.12,1.54-2.05,2.82-2.8c1.28-0.75,2.66-1.12,4.15-1.12
				c2.67,0,4.67,0.77,6.02,2.32c1.35,1.55,2.02,3.61,2.02,6.19v13.5h-3.61v-12.95c0-1.98-0.48-3.43-1.44-4.37
				c-0.96-0.93-2.24-1.4-3.85-1.4c-1.15,0-2.19,0.34-3.12,1.01s-1.66,1.56-2.19,2.67c-0.53,1.1-0.8,2.24-0.8,3.42v11.61h-3.66
				V261.93z"/>
			<path fill="#656C73" d="M250.84,291.92c-1.66-0.99-2.96-2.35-3.89-4.09c-0.93-1.73-1.4-3.66-1.4-5.78s0.47-4.05,1.4-5.79
				c0.93-1.73,2.23-3.1,3.89-4.09c1.66-0.99,3.54-1.48,5.63-1.48s3.98,0.49,5.66,1.48c1.68,0.99,2.98,2.35,3.91,4.09
				c0.93,1.74,1.4,3.66,1.4,5.79s-0.47,4.05-1.4,5.78c-0.93,1.74-2.24,3.1-3.91,4.09c-1.68,0.99-3.56,1.48-5.66,1.48
				S252.5,292.91,250.84,291.92z M260.08,289.11c1.12-0.66,2.01-1.6,2.69-2.82s1.01-2.63,1.01-4.24s-0.34-3.02-1.01-4.24
				s-1.57-2.16-2.69-2.82c-1.12-0.66-2.32-0.99-3.61-0.99c-1.26,0-2.45,0.33-3.57,0.99c-1.12,0.66-2.01,1.6-2.69,2.82
				s-1.01,2.63-1.01,4.24s0.34,3.02,1.01,4.24s1.57,2.16,2.69,2.82c1.12,0.66,2.31,0.99,3.57,0.99
				C257.76,290.1,258.97,289.77,260.08,289.11z"/>
			<path fill="#656C73" d="M275.65,291.92c-1.66-0.99-2.96-2.35-3.89-4.09c-0.93-1.73-1.4-3.66-1.4-5.78s0.47-4.05,1.4-5.79
				c0.93-1.73,2.23-3.1,3.89-4.09c1.66-0.99,3.54-1.48,5.63-1.48s3.98,0.49,5.66,1.48c1.68,0.99,2.98,2.35,3.91,4.09
				c0.93,1.74,1.4,3.66,1.4,5.79s-0.47,4.05-1.4,5.78c-0.93,1.74-2.24,3.1-3.91,4.09c-1.68,0.99-3.56,1.48-5.66,1.48
				S277.32,292.91,275.65,291.92z M284.9,289.11c1.12-0.66,2.01-1.6,2.69-2.82s1.01-2.63,1.01-4.24s-0.34-3.02-1.01-4.24
				s-1.57-2.16-2.69-2.82c-1.12-0.66-2.32-0.99-3.61-0.99c-1.26,0-2.45,0.33-3.57,0.99c-1.12,0.66-2.01,1.6-2.69,2.82
				s-1.01,2.63-1.01,4.24s0.34,3.02,1.01,4.24s1.57,2.16,2.69,2.82c1.12,0.66,2.31,0.99,3.57,0.99
				C282.58,290.1,283.78,289.77,284.9,289.11z"/>
			<path fill="#656C73" d="M296.17,261.93h3.66v30.79h-3.66V261.93z"/>
			<path fill="#656C73" d="M319.22,291.92c-1.66-0.99-2.96-2.35-3.89-4.09c-0.93-1.73-1.4-3.66-1.4-5.78s0.47-4.05,1.4-5.79
				c0.93-1.73,2.23-3.1,3.89-4.09c1.66-0.99,3.54-1.48,5.63-1.48s3.98,0.49,5.66,1.48c1.68,0.99,2.98,2.35,3.91,4.09
				c0.93,1.74,1.4,3.66,1.4,5.79s-0.47,4.05-1.4,5.78c-0.93,1.74-2.24,3.1-3.91,4.09c-1.68,0.99-3.56,1.48-5.66,1.48
				S320.88,292.91,319.22,291.92z M328.47,289.11c1.12-0.66,2.01-1.6,2.69-2.82s1.01-2.63,1.01-4.24s-0.34-3.02-1.01-4.24
				s-1.57-2.16-2.69-2.82c-1.12-0.66-2.32-0.99-3.61-0.99c-1.26,0-2.45,0.33-3.57,0.99c-1.12,0.66-2.01,1.6-2.69,2.82
				s-1.01,2.63-1.01,4.24s0.34,3.02,1.01,4.24s1.57,2.16,2.69,2.82c1.12,0.66,2.31,0.99,3.57,0.99
				C326.15,290.1,327.35,289.77,328.47,289.11z"/>
			<path fill="#656C73" d="M341.8,274.7h-4v-3.31h4v-2.97c0-1.38,0.31-2.58,0.92-3.61c0.62-1.03,1.45-1.83,2.5-2.39
				c1.05-0.56,2.21-0.84,3.5-0.84c0.72,0,1.3,0.04,1.74,0.13c0.44,0.09,0.91,0.21,1.4,0.39v3.57c-0.92-0.46-1.92-0.69-3.01-0.69
				c-0.95,0-1.75,0.34-2.41,1.01c-0.66,0.67-0.99,1.61-0.99,2.82v2.58h5.5v3.31h-5.5v18.02h-3.66V274.7z"/>
			<path fill="#656C73" d="M365.93,261.93h17.85v3.48h-14.19v10.19h12.82v3.44h-12.82v10.19h14.19v3.48h-17.85V261.93z"/>
			<path fill="#656C73" d="M388.42,271.39h3.48v3.18h0.17c0.6-1.09,1.55-2.01,2.84-2.75c1.29-0.75,2.67-1.12,4.13-1.12
				c2.61,0,4.59,0.76,5.96,2.28c1.36,1.52,2.04,3.6,2.04,6.24v13.5h-3.61v-12.95c0-3.84-1.79-5.76-5.38-5.76
				c-1.15,0-2.18,0.33-3.1,0.99c-0.92,0.66-1.63,1.52-2.13,2.58c-0.5,1.06-0.75,2.18-0.75,3.36v11.78h-3.66V271.39z"/>
			<path fill="#656C73" d="M415.09,300.85c-1.63-1.23-2.74-2.67-3.31-4.3l3.4-1.42c0.43,1.26,1.2,2.29,2.3,3.08
				c1.1,0.79,2.42,1.18,3.94,1.18c2.26,0,4.01-0.66,5.23-1.97c1.22-1.31,1.83-3.15,1.83-5.51v-2.28h-0.17
				c-0.69,1.09-1.68,1.99-2.97,2.71c-1.29,0.72-2.75,1.08-4.39,1.08c-1.81,0-3.48-0.49-5.03-1.47c-1.55-0.98-2.78-2.33-3.7-4.06
				c-0.92-1.73-1.38-3.67-1.38-5.83c0-2.16,0.46-4.1,1.38-5.83c0.92-1.73,2.15-3.08,3.7-4.06c1.55-0.98,3.23-1.47,5.03-1.47
				c1.63,0,3.1,0.36,4.39,1.08c1.29,0.72,2.28,1.62,2.97,2.71h0.17v-3.1h3.48v20.47c0,2.35-0.46,4.34-1.38,5.98
				c-0.92,1.63-2.17,2.85-3.76,3.66c-1.59,0.8-3.39,1.21-5.4,1.21C418.83,302.7,416.72,302.08,415.09,300.85z M424.98,289.12
				c1.06-0.65,1.91-1.58,2.56-2.79c0.64-1.21,0.97-2.64,0.97-4.28s-0.32-3.08-0.97-4.3c-0.65-1.22-1.5-2.15-2.56-2.79
				c-1.06-0.63-2.22-0.95-3.48-0.95s-2.42,0.32-3.48,0.97c-1.06,0.65-1.91,1.58-2.56,2.79s-0.97,2.64-0.97,4.28s0.32,3.07,0.97,4.28
				s1.5,2.14,2.56,2.79c1.06,0.65,2.22,0.97,3.48,0.97S423.92,289.77,424.98,289.12z"/>
			<path fill="#656C73" d="M437.62,266.05c-0.52-0.52-0.77-1.13-0.77-1.85s0.26-1.33,0.77-1.85c0.52-0.52,1.13-0.77,1.85-0.77
				c0.72,0,1.33,0.26,1.85,0.77c0.52,0.52,0.77,1.13,0.77,1.85s-0.25,1.33-0.75,1.85c-0.5,0.52-1.13,0.77-1.87,0.77
				C438.76,266.83,438.14,266.57,437.62,266.05z M437.67,271.39h3.61v21.33h-3.61V271.39z"/>
			<path fill="#656C73" d="M446.96,271.39h3.48v3.18h0.17c0.6-1.09,1.55-2.01,2.84-2.75c1.29-0.75,2.67-1.12,4.13-1.12
				c2.61,0,4.59,0.76,5.96,2.28c1.36,1.52,2.04,3.6,2.04,6.24v13.5h-3.61v-12.95c0-3.84-1.79-5.76-5.38-5.76
				c-1.15,0-2.18,0.33-3.1,0.99c-0.92,0.66-1.63,1.52-2.13,2.58c-0.5,1.06-0.75,2.18-0.75,3.36v11.78h-3.66V271.39z"/>
			<path fill="#656C73" d="M474.76,291.95c-1.62-0.97-2.89-2.32-3.81-4.04c-0.92-1.72-1.38-3.67-1.38-5.85
				c0-2.06,0.43-3.96,1.29-5.7c0.86-1.73,2.09-3.11,3.68-4.13c1.59-1.02,3.42-1.53,5.48-1.53s3.88,0.47,5.44,1.4
				c1.56,0.93,2.76,2.24,3.59,3.94c0.83,1.69,1.25,3.64,1.25,5.85c0,0.4-0.03,0.69-0.09,0.86h-16.95c0.06,1.61,0.44,2.96,1.16,4.06
				c0.72,1.1,1.61,1.93,2.69,2.47s2.19,0.82,3.33,0.82c2.69,0,4.77-1.32,6.24-3.96l3.23,1.55c-0.92,1.72-2.19,3.1-3.81,4.15
				c-1.62,1.05-3.56,1.57-5.83,1.57C478.22,293.41,476.38,292.92,474.76,291.95z M486.44,279.69c-0.06-0.86-0.3-1.72-0.73-2.58
				c-0.43-0.86-1.13-1.59-2.09-2.19c-0.96-0.6-2.19-0.9-3.68-0.9c-1.61,0-3,0.52-4.17,1.55s-1.92,2.41-2.24,4.13H486.44z"/>
			<path fill="#656C73" d="M498.63,291.95c-1.62-0.97-2.89-2.32-3.81-4.04c-0.92-1.72-1.38-3.67-1.38-5.85
				c0-2.06,0.43-3.96,1.29-5.7c0.86-1.73,2.09-3.11,3.68-4.13c1.59-1.02,3.42-1.53,5.48-1.53s3.88,0.47,5.44,1.4
				c1.56,0.93,2.76,2.24,3.59,3.94c0.83,1.69,1.25,3.64,1.25,5.85c0,0.4-0.03,0.69-0.09,0.86h-16.95c0.06,1.61,0.44,2.96,1.16,4.06
				c0.72,1.1,1.61,1.93,2.69,2.47s2.19,0.82,3.33,0.82c2.69,0,4.77-1.32,6.24-3.96l3.23,1.55c-0.92,1.72-2.19,3.1-3.81,4.15
				c-1.62,1.05-3.56,1.57-5.83,1.57C502.09,293.41,500.25,292.92,498.63,291.95z M510.31,279.69c-0.06-0.86-0.3-1.72-0.73-2.58
				c-0.43-0.86-1.13-1.59-2.09-2.19c-0.96-0.6-2.19-0.9-3.68-0.9c-1.61,0-3,0.52-4.17,1.55s-1.92,2.41-2.24,4.13H510.31z"/>
			<path fill="#656C73" d="M518.31,271.39h3.48v3.48h0.17c0.4-1.18,1.23-2.17,2.47-2.97s2.49-1.2,3.72-1.2
				c0.89,0,1.72,0.14,2.5,0.43v3.91c-0.77-0.43-1.78-0.65-3.01-0.65c-1,0-1.94,0.29-2.82,0.88c-0.88,0.59-1.57,1.37-2.09,2.35
				c-0.52,0.98-0.77,2.04-0.77,3.19v11.9h-3.66V271.39z"/>
			<path fill="#656C73" d="M534.35,266.05c-0.52-0.52-0.77-1.13-0.77-1.85s0.26-1.33,0.77-1.85c0.52-0.52,1.13-0.77,1.85-0.77
				c0.72,0,1.33,0.26,1.85,0.77c0.52,0.52,0.77,1.13,0.77,1.85s-0.25,1.33-0.75,1.85c-0.5,0.52-1.13,0.77-1.87,0.77
				C535.48,266.83,534.87,266.57,534.35,266.05z M534.39,271.39h3.61v21.33h-3.61V271.39z"/>
			<path fill="#656C73" d="M543.68,271.39h3.48v3.18h0.17c0.6-1.09,1.55-2.01,2.84-2.75c1.29-0.75,2.67-1.12,4.13-1.12
				c2.61,0,4.59,0.76,5.96,2.28c1.36,1.52,2.04,3.6,2.04,6.24v13.5h-3.61v-12.95c0-3.84-1.79-5.76-5.38-5.76
				c-1.15,0-2.18,0.33-3.1,0.99c-0.92,0.66-1.63,1.52-2.13,2.58c-0.5,1.06-0.75,2.18-0.75,3.36v11.78h-3.66V271.39z"/>
			<path fill="#656C73" d="M570.35,300.85c-1.63-1.23-2.74-2.67-3.31-4.3l3.4-1.42c0.43,1.26,1.2,2.29,2.3,3.08
				c1.1,0.79,2.42,1.18,3.93,1.18c2.26,0,4.01-0.66,5.23-1.97s1.83-3.15,1.83-5.51v-2.28h-0.17c-0.69,1.09-1.68,1.99-2.97,2.71
				c-1.29,0.72-2.75,1.08-4.39,1.08c-1.81,0-3.48-0.49-5.03-1.47c-1.55-0.98-2.78-2.33-3.7-4.06s-1.38-3.67-1.38-5.83
				c0-2.16,0.46-4.1,1.38-5.83c0.92-1.73,2.15-3.08,3.7-4.06c1.55-0.98,3.23-1.47,5.03-1.47c1.63,0,3.1,0.36,4.39,1.08
				s2.28,1.62,2.97,2.71h0.17v-3.1h3.48v20.47c0,2.35-0.46,4.34-1.38,5.98c-0.92,1.63-2.17,2.85-3.76,3.66
				c-1.59,0.8-3.39,1.21-5.4,1.21C574.09,302.7,571.98,302.08,570.35,300.85z M580.24,289.12c1.06-0.65,1.91-1.58,2.56-2.79
				c0.65-1.21,0.97-2.64,0.97-4.28s-0.32-3.08-0.97-4.3c-0.64-1.22-1.5-2.15-2.56-2.79c-1.06-0.63-2.22-0.95-3.48-0.95
				s-2.42,0.32-3.48,0.97c-1.06,0.65-1.91,1.58-2.56,2.79c-0.65,1.21-0.97,2.64-0.97,4.28s0.32,3.07,0.97,4.28
				c0.64,1.21,1.5,2.14,2.56,2.79c1.06,0.65,2.22,0.97,3.48,0.97S579.18,289.77,580.24,289.12z"/>
			<path fill="#656C73" d="M592.07,296.29l2.28-3.57c-0.52-0.09-0.98-0.36-1.38-0.82c-0.4-0.46-0.6-1.02-0.6-1.68
				c0-0.75,0.26-1.38,0.79-1.91s1.18-0.8,1.96-0.8c0.77,0,1.43,0.27,1.96,0.8s0.8,1.17,0.8,1.91c0,0.49-0.1,0.95-0.3,1.4
				c-0.2,0.44-0.5,0.95-0.9,1.53l-2.84,4.3L592.07,296.29z"/>
			<path fill="#656C73" d="M619.04,291.3c-2.44-1.41-4.35-3.34-5.74-5.81c-1.39-2.47-2.09-5.19-2.09-8.17
				c0-2.98,0.69-5.71,2.09-8.17c1.39-2.46,3.3-4.4,5.74-5.81c2.44-1.4,5.13-2.11,8.09-2.11c2.32,0,4.44,0.44,6.34,1.31
				c1.91,0.88,3.55,2.12,4.92,3.72l-2.58,2.54c-1.15-1.4-2.43-2.44-3.85-3.1c-1.42-0.66-3.03-0.99-4.84-0.99
				c-2.21,0-4.24,0.52-6.11,1.57c-1.86,1.05-3.35,2.52-4.45,4.43c-1.1,1.91-1.66,4.11-1.66,6.6c0,2.5,0.55,4.7,1.66,6.6
				c1.1,1.91,2.59,3.38,4.45,4.43c1.86,1.05,3.9,1.57,6.11,1.57c3.76,0,6.94-1.53,9.55-4.6l2.62,2.58
				c-1.41,1.69-3.16,3.03-5.25,4.02c-2.09,0.99-4.4,1.48-6.92,1.48C624.17,293.41,621.47,292.71,619.04,291.3z"/>
			<path fill="#656C73" d="M646.95,291.92c-1.66-0.99-2.96-2.35-3.89-4.09c-0.93-1.73-1.4-3.66-1.4-5.78s0.47-4.05,1.4-5.79
				c0.93-1.73,2.23-3.1,3.89-4.09s3.54-1.48,5.63-1.48c2.09,0,3.98,0.49,5.66,1.48s2.98,2.35,3.91,4.09c0.93,1.74,1.4,3.66,1.4,5.79
				s-0.47,4.05-1.4,5.78c-0.93,1.74-2.24,3.1-3.91,4.09s-3.56,1.48-5.66,1.48C650.49,293.41,648.61,292.91,646.95,291.92z
				 M656.2,289.11c1.12-0.66,2.01-1.6,2.69-2.82c0.67-1.22,1.01-2.63,1.01-4.24s-0.34-3.02-1.01-4.24
				c-0.67-1.22-1.57-2.16-2.69-2.82c-1.12-0.66-2.32-0.99-3.61-0.99c-1.26,0-2.45,0.33-3.57,0.99c-1.12,0.66-2.01,1.6-2.69,2.82
				c-0.67,1.22-1.01,2.63-1.01,4.24s0.34,3.02,1.01,4.24c0.67,1.22,1.57,2.16,2.69,2.82c1.12,0.66,2.31,0.99,3.57,0.99
				C653.87,290.1,655.08,289.77,656.2,289.11z"/>
			<path fill="#656C73" d="M667.55,266.05c-0.52-0.52-0.77-1.13-0.77-1.85s0.26-1.33,0.77-1.85c0.52-0.52,1.13-0.77,1.85-0.77
				c0.72,0,1.33,0.26,1.85,0.77c0.52,0.52,0.77,1.13,0.77,1.85s-0.25,1.33-0.75,1.85c-0.5,0.52-1.13,0.77-1.87,0.77
				C668.68,266.83,668.07,266.57,667.55,266.05z M667.59,271.39h3.61v21.33h-3.61V271.39z"/>
			<path fill="#656C73" d="M676.88,271.39h3.48v3.18h0.17c0.6-1.09,1.54-2.01,2.82-2.75c1.28-0.75,2.57-1.12,3.89-1.12
				c1.61,0,2.99,0.38,4.15,1.14s2,1.8,2.52,3.12c0.8-1.29,1.83-2.32,3.1-3.1s2.71-1.16,4.34-1.16c2.5,0,4.37,0.76,5.63,2.28
				c1.26,1.52,1.89,3.61,1.89,6.28v13.46h-3.66v-12.9c0-2.09-0.39-3.58-1.18-4.47c-0.79-0.89-2-1.33-3.63-1.33
				c-1.09,0-2.07,0.32-2.95,0.97c-0.88,0.65-1.56,1.5-2.04,2.56c-0.49,1.06-0.73,2.18-0.73,3.36v11.83h-3.61v-12.9
				c0-2.09-0.4-3.58-1.2-4.47c-0.8-0.89-2.01-1.33-3.61-1.33c-1.12,0-2.11,0.33-2.97,0.99c-0.86,0.66-1.53,1.52-2.02,2.58
				c-0.49,1.06-0.73,2.19-0.73,3.4v11.74h-3.66V271.39z"/>
			<path fill="#656C73" d="M720.64,292.31c-1.3-0.73-2.29-1.66-2.95-2.77h-0.17v3.18h-3.48v-30.79h3.66v9.68l-0.17,2.92h0.17
				c0.69-1.09,1.68-2,2.97-2.73s2.78-1.1,4.47-1.1c1.83,0,3.53,0.49,5.08,1.48c1.55,0.99,2.78,2.34,3.7,4.06
				c0.92,1.72,1.38,3.66,1.38,5.81s-0.46,4.09-1.38,5.81c-0.92,1.72-2.15,3.08-3.7,4.06c-1.55,0.99-3.24,1.48-5.08,1.48
				C723.45,293.41,721.95,293.04,720.64,292.31z M728.08,289.11c1.08-0.66,1.94-1.6,2.58-2.82c0.64-1.22,0.97-2.63,0.97-4.24
				s-0.32-3.02-0.97-4.24c-0.65-1.22-1.51-2.16-2.58-2.82c-1.08-0.66-2.24-0.99-3.5-0.99s-2.43,0.32-3.5,0.97s-1.94,1.58-2.58,2.8
				s-0.97,2.64-0.97,4.28c0,1.61,0.32,3.03,0.97,4.26c0.65,1.23,1.51,2.17,2.58,2.82c1.08,0.64,2.24,0.97,3.5,0.97
				S727.01,289.77,728.08,289.11z"/>
			<path fill="#656C73" d="M742.15,292.48c-1.25-0.62-2.22-1.48-2.92-2.58c-0.7-1.1-1.05-2.34-1.05-3.72c0-2.26,0.85-4.03,2.56-5.29
				s3.89-1.89,6.56-1.89c1.32,0,2.51,0.14,3.57,0.43c1.06,0.29,1.91,0.6,2.54,0.95v-1.12c0-1.03-0.27-1.96-0.79-2.77
				c-0.53-0.82-1.24-1.45-2.13-1.89s-1.85-0.67-2.88-0.67c-2.44,0-4.3,0.99-5.59,2.97l-3.05-2.02c0.89-1.32,2.06-2.34,3.53-3.08
				c1.46-0.73,3.11-1.1,4.95-1.1c2.92,0,5.23,0.79,6.92,2.37c1.69,1.58,2.54,3.7,2.54,6.37v13.29h-3.48v-3.14h-0.17
				c-0.69,1.09-1.62,2-2.8,2.73c-1.18,0.73-2.54,1.1-4.09,1.1C744.79,293.41,743.4,293.1,742.15,292.48z M749.91,289.28
				c1.03-0.6,1.87-1.42,2.52-2.45c0.65-1.03,0.97-2.15,0.97-3.35c-1.61-1.03-3.46-1.55-5.55-1.55c-1.81,0-3.25,0.41-4.32,1.23
				s-1.61,1.86-1.61,3.12c0,1.15,0.47,2.09,1.42,2.82c0.95,0.73,2.05,1.1,3.31,1.1C747.79,290.18,748.88,289.88,749.91,289.28z"/>
			<path fill="#656C73" d="M767.27,292.97c-0.73-0.29-1.35-0.69-1.87-1.18c-0.57-0.56-1-1.21-1.27-1.95
				c-0.27-0.75-0.41-1.63-0.41-2.65V274.7h-3.79v-3.31h3.79v-6.37h3.61v6.37h5.25v3.31h-5.25v11.62c0,1.23,0.24,2.14,0.73,2.73
				c0.49,0.65,1.23,0.97,2.24,0.97c0.89,0,1.66-0.2,2.32-0.6v3.53c-0.46,0.17-0.9,0.29-1.31,0.37c-0.42,0.07-0.97,0.11-1.66,0.11
				C768.79,293.41,768,293.26,767.27,292.97z"/>
			<path fill="#656C73" d="M779.98,291.92c-1.66-0.99-2.96-2.35-3.89-4.09c-0.93-1.73-1.4-3.66-1.4-5.78s0.47-4.05,1.4-5.79
				c0.93-1.73,2.23-3.1,3.89-4.09c1.66-0.99,3.54-1.48,5.63-1.48s3.98,0.49,5.66,1.48c1.68,0.99,2.98,2.35,3.91,4.09
				c0.93,1.74,1.4,3.66,1.4,5.79s-0.47,4.05-1.4,5.78c-0.93,1.74-2.24,3.1-3.91,4.09c-1.68,0.99-3.56,1.48-5.66,1.48
				S781.64,292.91,779.98,291.92z M789.22,289.11c1.12-0.66,2.01-1.6,2.69-2.82s1.01-2.63,1.01-4.24s-0.34-3.02-1.01-4.24
				s-1.57-2.16-2.69-2.82c-1.12-0.66-2.32-0.99-3.61-0.99c-1.26,0-2.45,0.33-3.57,0.99c-1.12,0.66-2.01,1.6-2.69,2.82
				s-1.01,2.63-1.01,4.24s0.34,3.02,1.01,4.24s1.57,2.16,2.69,2.82c1.12,0.66,2.31,0.99,3.57,0.99
				C786.9,290.1,788.1,289.77,789.22,289.11z"/>
			<path fill="#656C73" d="M800.28,271.39h3.48v3.48h0.17c0.4-1.18,1.23-2.17,2.47-2.97c1.25-0.8,2.49-1.2,3.72-1.2
				c0.89,0,1.72,0.14,2.49,0.43v3.91c-0.77-0.43-1.78-0.65-3.01-0.65c-1,0-1.94,0.29-2.82,0.88c-0.88,0.59-1.57,1.37-2.09,2.35
				c-0.52,0.98-0.77,2.04-0.77,3.19v11.9h-3.66V271.39z"/>
			<path fill="#656C73" d="M818.71,291.95c-1.62-0.97-2.89-2.32-3.81-4.04c-0.92-1.72-1.38-3.67-1.38-5.85
				c0-2.06,0.43-3.96,1.29-5.7c0.86-1.73,2.09-3.11,3.68-4.13c1.59-1.02,3.42-1.53,5.48-1.53s3.88,0.47,5.44,1.4
				c1.56,0.93,2.76,2.24,3.59,3.94c0.83,1.69,1.25,3.64,1.25,5.85c0,0.4-0.03,0.69-0.09,0.86h-16.95c0.06,1.61,0.44,2.96,1.16,4.06
				c0.72,1.1,1.61,1.93,2.69,2.47s2.19,0.82,3.33,0.82c2.69,0,4.77-1.32,6.24-3.96l3.23,1.55c-0.92,1.72-2.19,3.1-3.81,4.15
				c-1.62,1.05-3.56,1.57-5.83,1.57C822.17,293.41,820.33,292.92,818.71,291.95z M830.38,279.69c-0.06-0.86-0.3-1.72-0.73-2.58
				s-1.13-1.59-2.09-2.19c-0.96-0.6-2.19-0.9-3.68-0.9c-1.61,0-3,0.52-4.17,1.55s-1.92,2.41-2.24,4.13H830.38z"/>
		</g>
	</g>
</g>
</svg>
