<?xml version="1.0" encoding="UTF-8"?><svg version="1.1" xmlns="http://www.w3.org/2000/svg" xmlns:xlink="http://www.w3.org/1999/xlink" viewBox="0 0 1500 1500" width="1500" height="1500" x="0px" y="0px">
              
              <!-- ITEM 0 -->
<g transform="translate(164.0 137.0) rotate(52.221587306715 594.5 620.0) scale(1.48625 1.4827215114193473)">
<g transform="translate(-0.0 -0.0)">
<g clip-path="url(#clipPathId-collage-item-0)">
		<defs>
			<clipPath id="clipPathId-collage-item-0">
				<rect x="0.0" y="0.0" width="800.0" height="836.3"/>
			</clipPath>
		</defs>

<g>
	<path fill="#355189" d="M800,415.9c0-80.2-35.5-152.2-92-201.6c-17.6-15.4-29.7-35.9-35.5-58.5C649.4,66.3,566.9,0,468.7,0   c-48.4-0.1-95.3,16.3-133,46.6c-21.2,17.1-48,26-75.4,25.9h-0.5C116.4,72.6,0.1,191.4,0.1,338c0,83.2,37.5,157.4,96.1,206.1   c28.7,23.7,44.4,59.6,42.2,96.8c-0.2,2.8-0.3,5.7-0.3,8.6c0,103.2,114.8,186.8,256.4,186.8c121.2,0,222.7-61.3,249.5-143.7   c7.7-23.6,23-44.1,43.4-58.7C755.6,584.8,800,505.5,800,415.9z"/>
	<path fill="#F04E23" d="M329.7,377.1c-7-3.8,0-13.7,5.5-10.4C340.7,370.1,338.8,382,329.7,377.1z"/>
	<path fill="#F04E23" d="M501.5,446.8c7.1-3.6,11.2,7.9,5.3,10.4C500.9,459.8,492.2,451.5,501.5,446.8z"/>
	<path fill="#F04E23" d="M344,401.7c-4.3-4.5,1.6-12.2,4.8-6.2C352,401.6,347.6,405.4,344,401.7z"/>
	<path fill="#F04E23" d="M525.8,404c4,4.4-2.3,10.1-5.1,4.5C517.9,403,522.5,400.4,525.8,404z"/>
	<path fill="#F04E23" d="M406.016,524c4,4.4-2.3,10.1-5.1,4.5C398.116,523,402.716,520.4,406.016,524z"/>
	<path fill="#F04E23" d="M453.6,321.4c-5.3,2.8-9.2-6.3-3.1-7.7S457.9,319.2,453.6,321.4z"/>
	<circle fill="#FFB400" cx="687.6" cy="550.8" r="3.8"/>
	<circle fill="#FFB400" cx="382" cy="768.867" r="3.8"/>
	<circle fill="#FFB400" cx="607.5" cy="617.3" r="3.8"/>
	<circle fill="#FFB400" cx="70.1" cy="437.2" r="3.8"/>
	<circle fill="#FFB400" cx="204.5" cy="452.9" r="3.8"/>
	<circle fill="#FFB400" cx="59.9" cy="283.7" r="3.8"/>
	<circle fill="#FFB400" cx="332.5" cy="107" r="3.8"/>
	<circle fill="#FFB400" cx="360.2" cy="76.8" r="3.8"/>
	<circle fill="#FFB400" cx="178.5" cy="591.9" r="3.8"/>
	<circle fill="#FFB400" cx="297.2" cy="602.5" r="3.8"/>
	<circle fill="#FFB400" cx="477" cy="666.271" r="3.8"/>
	<circle fill="#FFB400" cx="659.2" cy="254" r="3.8"/>
	<circle fill="#FFB400" cx="560.4" cy="76.8" r="3.8"/>
	<circle fill="#FFB400" cx="757.1" cy="393.3" r="3.8"/>
	<circle fill="#FFB400" cx="577.4" cy="575.8" r="3.8"/>
	<circle fill="#FFB400" cx="406" cy="735.6" r="6"/>
	<circle fill="#FFB400" cx="679.3" cy="235.4" r="6"/>
	<circle fill="#FFB400" cx="643.4" cy="131.7" r="6"/>
	<circle fill="#FFB400" cx="361.2" cy="159.3" r="6"/>
	<circle fill="#FFB400" cx="194.4" cy="545.9" r="6"/>
	<circle fill="#FFB400" cx="70.8" cy="466.8" r="6"/>
	<circle fill="#FFB400" cx="261.2" cy="357.1" r="6"/>
	<circle fill="#FFB400" cx="509.626" cy="189.1" r="6"/>
	<circle fill="#FFB400" cx="112.3" cy="185.3" r="3.8"/>
	<circle fill="#FFB400" cx="121.1" cy="157.7" r="6"/>
</g>
<g>
	
		<ellipse transform="matrix(0.866 -0.5 0.5 0.866 -250.961 451.2062)" fill="#355189" cx="716.46" cy="693.891" rx="41.399" ry="35.899"/>
	<circle fill="#FFB400" cx="699" cy="703.1" r="6"/>
	<circle fill="#FFB400" cx="714.8" cy="684.4" r="3.8"/>
</g>
<g>
	
		<ellipse transform="matrix(0.866 -0.5 0.5 0.866 22.1419 383.6611)" fill="#355189" cx="726.974" cy="150.514" rx="30.599" ry="34.299"/>
	<circle fill="#FFB400" cx="716" cy="155.6" r="3.8"/>
</g>
<g>
	
		<ellipse transform="matrix(0.9598 -0.2807 0.2807 0.9598 -170.218 42.173)" fill="#355189" cx="62.114" cy="615.304" rx="47.9" ry="55.3"/>
	<circle fill="#355189" cx="100.5" cy="719" r="22.6"/>
	<circle fill="#FFB400" cx="57.6" cy="616" r="3.8"/>
	<circle fill="#FFB400" cx="84.7" cy="628" r="6"/>
</g>

</g>
</g>
</g>

<!-- ITEM 1 -->
<g transform="translate(331.0 177.0) rotate(0.0 516.0 531.5) scale(0.7612752836340568 0.7595358185802611)">
<g transform="translate(-0.0 -0.0)">
<g clip-path="url(#clipPathId-collage-item-1)">
		<defs>
			<clipPath id="clipPathId-collage-item-1">
				<rect x="0.0" y="0.0" width="1355.62" height="1399.539"/>
			</clipPath>
		</defs>

<g>
	<path style="fill:#FFB400;" d="M125.374,853.33c-3.844-26.733,9.73-53.865,30.016-71.695c20.286-17.83,46.45-27.569,72.707-33.892   c6.6-1.589,13.65-2.968,20.062-0.738c8.209,2.855,13.529,11.222,15.094,19.772c1.565,8.55,0.005,17.337-1.794,25.84   c-5.002,23.649-12.005,47.21-24.611,67.836c-11.52,18.849-35.104,47.18-59.741,43.201   C151.228,899.474,129.177,879.778,125.374,853.33z"/>
	<path style="fill:#FFFFFF;" d="M201.584,1253.745c7.701,42.307,30.714,81.765,64.364,102.507s77.772,20.554,109.178-4.251   c24.695-19.505,39.845-52.325,43.149-86.08s-4.523-68.174-18.856-98.054c-19.407-40.457-52.85-74.487-93.102-82.297   c-32.523-6.311-78.386,9.56-95.175,44.29C195.34,1162.55,195.278,1219.101,201.584,1253.745z"/>
	<path style="fill:#FFFFFF;" d="M314.348,1278.344c5.972,33.161,27.197,62.445,54.484,82.212   c27.287,19.768,60.24,30.635,93.559,35.647c50.662,7.621,103.241,2.116,151.226-15.832c58.507-21.884,58.528-28.691,112.899-70.975   c23.914-18.598,62.682-50.447,82.556-73.311c19.874-22.864,28.992-58.591,11.845-83.566   c-13.472-19.623-38.572-27.117-61.964-31.516c-77.574-14.589-115.645-8.825-193.76,2.52   c-61.336,8.908-121.964,21.904-182.937,32.899c-30.234,5.452-47.337,1.664-56.974,32.456   C316.273,1217.667,308.9,1248.095,314.348,1278.344z"/>
	<path style="fill:#FFFFFF;" d="M28.918,1213.523c-17.752-19.388-35.051-45.144-26.798-70.103   c7.181-21.713,30.77-32.993,52.616-39.759c39.179-12.135,56.784-20.821,97.764-19.151c32.388,1.32,66.539,7.949,90.378,29.912   c22.324,20.566,32.036,51.186,39.149,80.694c9.685,40.177,92.494,186.636,26.319,176.13   c-43.156-6.851-109.291-30.386-132.385-40.775c-30.377-13.665-43.83-23.869-71.044-43.076   C75.158,1266.392,53.519,1240.391,28.918,1213.523z"/>
	<path style="fill:#04294F;" d="M268.005,1227.761c14.133,6.897,29.682,10.262,45.23,12.188   c63.143,7.822,128.838-8.035,181.882-43.899c6.81-4.604,13.671-9.824,17.295-17.301s2.904-17.789-3.683-22.722   c-4.328-3.241-10.24-3.525-15.428-2.122c-5.188,1.403-9.849,4.29-14.502,7.023c-32.91,19.328-69.344,32.235-106.802,38.386   c-39.026,6.408-75.85,3.193-114.618-2.382c-7.036-1.012-18.618,1.378-14.77,11.585   C245.734,1216.801,260.715,1224.203,268.005,1227.761z"/>
	<path style="fill:#F04E23;" d="M525.038,878.776c-5.26,30.23-7.92,86.09-10.02,141.59c-1.546,41.059-2.78,81.918-4.519,112.053   c-1.275,22.092,15.629,21.117-4.961,44.837c-18.656,21.493-223.08,134.05-290.99,0c-35.51-70.1-47.4-155.61-49.12-231.22   c-1.09-47.53,1.85-91.14,5.46-124.56c1.65-15.25,5.47-27.75,11-37.97c28.38-52.51,101.59-44.63,154.15-39.72   c73.3,6.83,136.4,32.78,168.17,69.11C521.188,832.326,529.218,854.736,525.038,878.776z"/>
	<path style="fill:#FFB400;" d="M351.949,819.17c-22.925,0-45.844-1.62-68.471-4.879l9.694-67.305   c120.688,17.383,243.241-19.273,319.831-95.663l48.021,48.146c-46.318,46.198-106.962,81.088-175.377,100.899   C442.532,812.852,397.229,819.17,351.949,819.17z"/>
	<path style="fill:#04294F;" d="M1062.342,487.539c-1.511-14.055-13.623-25.895-27.806-27.738   c-127.028-16.485-254.565-32.917-382.613-49.27c-2.29-0.292-4.486-0.31-6.572-0.095c-0.628-0.09-1.272-0.141-1.933-0.149   c-16.033,4.103-30.5,16.109-40.318,27.914l26.583,27.539c8.835,65.124,9.722,131.055,2.658,196.34   c-1.51,14.056,7.178,25.899,20.835,27.738c108.113,14.573,215.805,29.099,323.121,43.57c0.91,3.367,1.62,5.944,1.62,5.944   l33.21,16.068c16.29-8.005,35.324-20.94,41.074-34.568l0,0c1.559-2.892,2.682-6.011,3.241-9.281   C1068.108,637.481,1070.408,562.089,1062.342,487.539z"/>
	<path style="fill:#FFB400;" d="M570.393,628.736c2.423-17.634,16.099-36.15,5.543-51.908c-3.63-5.42-9.734-9.59-14.218-14.616   c-4.484-5.026-7.242-11.848-3.322-17.146c3.516-4.754,11.526-6.684,18.54-5.825c7.014,0.859,13.198,3.974,18.8,7.337   c44.621,26.783,64.687,75.529,48.255,117.225C624.636,712.913,566.225,659.061,570.393,628.736z"/>
	<g>
		<path style="fill:#00AEE0;" d="M990.564,760.088c-121.285-16.354-243.081-32.784-365.387-49.27    c-13.657-1.838-22.346-13.682-20.835-27.738c8.066-74.55,5.766-149.942-6.899-224.012c-2.875-16.833,9.225-29.732,26.48-27.537    c128.048,16.353,255.586,32.785,382.613,49.27c14.183,1.843,26.296,13.683,27.806,27.738c8.066,74.55,5.766,149.942-6.899,224.012    C1024.568,749.388,1006.866,762.285,990.564,760.088z"/>
		<path style="fill:#FFFFFF;" d="M994.241,737.332c-0.213,0-0.417-0.013-0.605-0.038l-138.65-18.697    c-75.383-10.166-150.962-20.359-226.737-30.573c-0.515-0.069-1.288-0.173-1.039-2.487c8.303-76.74,5.916-154.245-7.096-230.345    c-0.061-0.359-0.086-0.661-0.092-0.903c0.039-0.001,0.079-0.001,0.12-0.001c0.27,0,0.565,0.02,0.878,0.06    c123.391,15.758,252.105,32.333,382.556,49.263c3.769,0.49,7.535,4.011,7.898,7.387c7.849,72.542,5.593,145.773-6.702,217.677    C1004.066,732.804,998.556,737.332,994.241,737.332z"/>
	</g>
	<path style="fill:#FFB400;" d="M839.193,575.409c26.112-1.38,53.106,11.634,66.88,32.243c2.647,3.96,4.896,8.558,3.859,12.976   c-1.734,7.391-11.3,10.392-19.569,11.607c-27.401,4.027-56.126,1.718-82.87-6.436c-7.957-2.426-25.113-5.962-24.693-15.923   c0.357-8.482,13.449-18.097,20.247-22.577C813.476,580.426,826.075,576.102,839.193,575.409z"/>
	<path style="fill:#04294F;" d="M979.991,568.515c-2.29-2.721-7.927-3.997-11.137-3.207   c-68.581,16.922-136.969,34.591-205.164,53.009c-1.315,0.356-2.819,1.223-4.183,2.358l-28.291,15.949   c-1.36,0.767-2.048,2.343-1.685,3.862c0.374,1.563,1.764,2.67,3.371,2.685l32.459,0.292c1.755,0.338,3.504,0.37,4.837,0.043   c68.581-16.923,136.969-34.592,205.164-53.009c3.191-0.866,7.506-4.709,8.189-8.201   C984.552,577.137,983.365,572.543,979.991,568.515z"/>
	<path style="fill:#FFB400;" d="M818.034,674.661c-8.125-6.828-21.531,0.994-31.823-1.595c-10.292-2.589-21.141-9.104-22.961-19.559   c-1.993-11.45,8.711-21.575,19.851-24.889c11.14-3.313,23.126-2.251,34.5-4.64c13.095-2.75,24.755-9.913,36.955-15.409   c12.2-5.496,26.151-9.386,38.858-5.193c14.657,4.836,24.094,19.357,28.694,34.09c5.948,19.052,5.533,40.435-3.246,58.359   c-8.711,17.786-35.428,41.676-56.641,41.422C831.506,736.88,835.888,689.664,818.034,674.661z"/>
	<path style="fill:#FFB400;" d="M504.102,812.793c6.829,6.713,16.309,11.766,24.163,17.614c1.95,1.483,3.971,2.872,5.967,4.315   c1.995,1.443,4.081,2.749,6.125,4.142c2.042,1.398,4.152,2.691,6.257,4.003c2.094,1.335,4.246,2.57,6.391,3.835   c17.21,10.021,35.687,18.377,54.877,24.841c38.382,12.843,79.699,18.113,119.577,13.854l7.454-0.904l7.41-1.12   c4.597-0.746,9.094-1.663,13.531-2.781c4.429-1.119,8.783-2.409,12.998-3.918c4.208-1.534,8.281-3.269,12.197-5.18   c3.911-1.92,7.685-3.988,11.215-6.308c3.53-2.317,6.855-4.813,9.97-7.469c1.541-1.34,3.05-2.706,4.491-4.121   c1.41-1.446,2.821-2.896,4.176-4.469c14.008-16.252,21.627-37.2,25.221-58.116c1.821-10.597,2.631-21.369,2.533-32.118   c-0.102-11.099,1.204-22.509-0.231-33.555c-0.006-0.046-0.012-0.092-0.018-0.138c0,0,70.113-4.062,70.113-4.062   c-0.229,11.25,0.112,22.968,0.281,35.282c0.578,41.945-5.419,84.689-27.21,121.275c-3.708,6.262-7.742,12.415-12.277,18.338   c-4.514,5.931-9.566,11.681-14.868,16.974c-5.327,5.29-10.956,10.19-16.808,14.683c-5.859,4.479-11.874,8.658-18.075,12.405   c-6.193,3.761-12.533,7.158-18.976,10.198c-6.424,3.094-12.95,5.848-19.55,8.295c-6.594,2.448-13.29,4.585-19.992,6.431   l-9.592,2.522l-9.648,2.239c-3.224,0.69-6.458,1.314-9.694,1.967c-3.237,0.623-6.483,1.135-9.732,1.701   c-6.493,1.08-13.008,2.027-19.537,2.771c-3.267,0.433-6.53,0.681-9.802,1.006c-3.273,0.348-6.541,0.519-9.815,0.776   c-3.277,0.275-6.549,0.439-9.825,0.591l-4.919,0.234l-4.913,0.12c-26.221,0.607-52.472-0.916-78.532-4.57   c-26.068-3.634-51.978-9.251-77.649-16.871c-25.695-7.595-51.079-17.277-76.407-28.944L504.102,812.793z"/>
	<path style="fill:#FFFFFF;" d="M1165.338,495.356c-43.33,131.79-147.58-64.42-153.7,3.29c-0.31,3.42-0.37,7.51-0.16,12.35   c2.99,68.44-391.36-55.8-391.36-55.8c-6.18-40.96-47.15-122.8-97.68-183.8c-50.52-61,34.48-70,61.48-41s49.63,88.35,68,79   c20.38-10.37,4.33-49.5-3.79-93.16c-0.01-0.03-0.01-0.06-0.02-0.09c-9.19-49.53-8.14-104.87,67.81-130.75   c82.97-28.27,56.95,48.76,56.95,98.83c0,0.01,0,0.01,0,0.01c0,3.17,0.1,6.24,0.35,9.16c1.43,17.2,7.67,29.48,25.7,30   c32.64,0.94,41.7-35.87,56.46-76.92c11.03-30.66,25.23-63.67,54.81-85.08c68.86-49.84,145.73-44,182.73,21s-19.74,99-53.87,112   c-34.13,13-160.13,64-97.13,99c3.02,1.68,5.97,3.11,8.84,4.32c13.61,5.72,25.69,6.43,37.27,4.48   c36.93-6.22,68.72-39.48,128.89-22.8c83,23,65.67,92.3,21,86c-54.87-7.74-72.82,19.6-68.39,32.68c0.64,1.92,1.77,3.53,3.34,4.67   c1.55,1.14,3.52,1.83,5.88,1.91c16.31,0.56,29.83,3.41,40.97,7.8C1166.558,430.926,1171.448,476.736,1165.338,495.356z"/>
	<path style="fill:#FFFFFF;" d="M625.816,494.063c-5.702-38.871-88.993-93.337-119.103-62.775s-106.795-10.891-61.795-46.891   s114.318-22,129.159-5c14.841,17,21.249,0.158,0-33.569c-21.249-33.727,85.841,4.569,85.841,4.569l9.121,138L625.816,494.063z"/>
	<path style="fill:#F04E23;" d="M1314.563,180.769c15.108,1.271,29.772,8.308,36.912,20.431s5.118,29.418-6.55,39.237   c-19.965,16.801-98.659,15.315-112.094-8.873C1215.254,199.917,1290.353,179.01,1314.563,180.769z"/>
	<path style="fill:#FFFFFF;" d="M557.148,46.892c-0.111-8.688,2.212-17.262,5.571-25.275c2.326-5.551,5.229-10.99,9.566-15.163   s10.305-6.958,16.295-6.378c10.327,1.001,17.529,11.831,17.822,22.202s-4.628,20.141-10.066,28.977   c-5.077,8.248-14.157,21.211-25.517,20.071C560.036,70.244,557.26,55.658,557.148,46.892z"/>
	<path style="fill:#00AEE0;" d="M476.523,156.817c-5.303-2.874-9.718-8.398-9.182-14.406c0.489-5.485,4.91-9.878,9.764-12.479   c9.559-5.122,21.768-4.906,31.14,0.55c8.89,5.176,26.297,31.374,10.628,38.876c-5.521,2.643-11.712-3.156-16.659-5.116   C493.901,160.949,484.468,161.122,476.523,156.817z"/>
	<path style="fill:#FFB400;" d="M833.343,705.754c2.265,6.507,4.501,12.229,5.064,19.445s70.113-4.062,70.113-4.062   s14.422-28.368,16.536-44.93c2.113-16.561-41.637-9.811-41.637-9.811l-38.866,43.115L833.343,705.754z"/>
	<path style="fill:#FFB400;" d="M521.328,577.576c-1.02,9.96-2.83,19.76-5.76,29.21c-2.03,6.56-4.61,12.95-7.83,19.11   c-22.8,43.61-75.05,66.25-124.23,64.36c3.17,0,22.55,71.51,19.56,78.76c-8.16,19.76-53.1,16.67-69.5,14.53   c-16.6-2.16-34.44-8.72-42.05-23.63c-7.74-15.17-2.39-33.33,1.56-49.89c14.43-60.29,7.67-125.44-18.83-181.49   c-11.02-23.32-25.72-46.75-24.27-72.5c1.48-26.38,20.43-49.36,43.48-62.27c23.04-12.92,49.78-17.38,76.02-20.41   c24.28-2.81,49.56-4.47,72.51,3.92c27.95,10.22,49.07,34.56,61.13,61.76c12.06,27.21,16.06,57.27,18.19,86.96   C522.528,543.046,523.078,560.556,521.328,577.576z"/>
	<path style="fill:#FFB400;" d="M207.918,861.726c0,46.58-18.62,84.34-41.6,84.34c-0.3,0-0.6-0.01-0.89-0.03   c-1.09-47.53,1.85-91.14,5.46-124.56c1.65-15.25,5.47-27.75,11-37.97C197.148,795.986,207.918,826.306,207.918,861.726z"/>
	<path style="fill:#FFB400;" d="M525.038,878.776c-5.26,30.23-7.92,86.09-10.02,141.59c-8.13,5.39-17.05,8.36-26.41,8.36   c-37.97,0-68.75-48.95-68.75-109.33s30.78-109.33,68.75-109.33c5.37,0,10.59,0.98,15.6,2.83   C521.188,832.326,529.218,854.736,525.038,878.776z"/>
	<path style="fill:#04294F;" d="M561.918,457.396c-34,24-123,0-167-27c0,0.05-0.01,0.1-0.01,0.15   c-7.97,84.91,8.03,137.9,35.01,218.85c27,81,90.97,101.61,66.09,155c-19.1,40.99-63.09,25-78.04,26.24   c-14.96,1.24-19.56,50.59-77.58,50.33c-82.7-0.37-79.47-56.57-101.24-65.64c-21.78-9.07-38.23,22.07-83.76-22.93   c-45.53-45,24.53-117,55.53-182s-38-177,16-239.32c43.83-50.59,88.79-37.17,118.22-38.44c6.84-0.3,12.83-1.38,17.78-4.24   c93.25-53.84,139-17,163.21,53C550.328,451.396,595.918,433.396,561.918,457.396z"/>
	<ellipse style="fill:#04294F;" cx="484.637" cy="517.853" rx="11.712" ry="23.791"/>
	<path style="fill:#FFFFFF;" d="M521.328,577.576c-1.02,9.96-2.83,19.76-5.76,29.21c-2.62,0.69-5.31,1.15-7.98,1.46   c-11.28,1.27-22.85-0.04-33.56-3.81c-7.52-2.65-15.21-7.15-17.84-14.68c-0.82-2.33-1.06-5.02,0.11-7.2   c1.32-2.45,4.18-3.74,6.95-3.97s5.53,0.42,8.26,0.96c15.99,3.19,32.72,2.61,48.48-1.57   C520.438,577.856,520.878,577.726,521.328,577.576z"/>
	<path style="fill:#F04E23;" d="M265.19,1354.476c-0.228,0.416-0.952,0.529-2.141,0.353c-0.594-0.088-1.304-0.248-2.126-0.479   c-0.826-0.224-1.756-0.53-2.757-0.961c-4.086-1.586-9.67-4.651-15.904-9.458c-1.596-1.161-3.108-2.558-4.751-3.954   c-1.615-1.424-3.194-3.015-4.849-4.65c-1.557-1.72-3.264-3.433-4.8-5.383c-0.783-0.962-1.599-1.926-2.38-2.937   c-0.756-1.031-1.523-2.077-2.299-3.135c-2.994-4.309-5.951-9.007-8.406-14.204c-2.49-5.175-4.656-10.748-6.326-16.633   c-1.612-5.901-2.637-11.792-3.18-17.509c-0.585-5.718-0.481-11.268-0.144-16.504c0.117-1.307,0.233-2.598,0.348-3.872   c0.145-1.27,0.347-2.516,0.519-3.745c0.307-2.463,0.884-4.811,1.327-7.088c0.571-2.255,1.101-4.433,1.748-6.487   c0.684-2.045,1.257-4.022,2.023-5.841c2.853-7.337,6.049-12.847,8.728-16.316c0.634-0.887,1.272-1.629,1.864-2.248   c0.584-0.622,1.109-1.126,1.572-1.509c0.926-0.765,1.605-1.042,2.015-0.804s0.534,0.978,0.404,2.152   c-0.065,0.587-0.193,1.281-0.382,2.076c-0.196,0.791-0.44,1.688-0.681,2.707c-1.11,4.004-2.744,9.68-4.205,16.703   c-0.419,1.74-0.657,3.613-1.021,5.522c-0.327,1.919-0.553,3.935-0.841,6c-0.16,2.088-0.474,4.22-0.541,6.441   c-0.053,1.108-0.141,2.228-0.18,3.365c-0.016,1.137-0.032,2.29-0.048,3.457c0.035,4.66,0.187,9.549,0.878,14.55   c0.65,5.001,1.634,10.124,3.033,15.263c1.458,5.122,3.263,10.017,5.291,14.634c1.992,4.638,4.389,8.902,6.768,12.91   c0.617,0.991,1.226,1.969,1.828,2.935c0.621,0.954,1.275,1.867,1.893,2.788c1.206,1.867,2.576,3.53,3.792,5.235   c1.313,1.62,2.549,3.229,3.821,4.703c1.299,1.447,2.47,2.927,3.728,4.2c4.88,5.257,9.212,9.273,12.232,12.126   c0.733,0.749,1.406,1.39,1.982,1.966c0.572,0.583,1.041,1.112,1.4,1.58C265.142,1353.363,265.419,1354.061,265.19,1354.476z"/>
	<path style="fill:#F04E23;" d="M339.983,1255.695c0.885,0.341,1.29,1.954,1.297,4.476c0.002,0.631-0.022,1.319-0.07,2.059   c-0.019,0.744-0.04,1.553-0.063,2.422c-0.051,1.724-0.294,3.616-0.308,5.744c-0.039,1.056-0.094,2.154-0.167,3.29   c-0.063,1.137-0.013,2.334-0.047,3.554c-0.115,2.438,0.046,5.048,0.079,7.767c0.286,5.448,0.852,11.381,1.954,17.542   c1.185,6.145,2.788,11.885,4.478,17.073c0.946,2.55,1.733,5.043,2.716,7.277c0.47,1.126,0.854,2.261,1.321,3.3   c0.475,1.034,0.921,2.038,1.337,3.01c0.778,1.981,1.684,3.659,2.351,5.25c0.333,0.803,0.643,1.55,0.928,2.238   c0.311,0.674,0.58,1.307,0.805,1.896c0.899,2.356,1.1,4.007,0.397,4.643c-0.703,0.636-2.257,0.188-4.532-1.25   c-0.568-0.359-1.181-0.781-1.836-1.261c-0.636-0.495-1.266-1.085-1.956-1.718c-1.35-1.285-2.938-2.75-4.372-4.606   c-0.745-0.91-1.515-1.878-2.306-2.899c-0.783-1.026-1.473-2.168-2.239-3.329c-1.576-2.303-2.909-4.953-4.331-7.75   c-2.642-5.671-4.908-12.241-6.272-19.363c-1.285-7.136-1.531-14.082-1.102-20.323c0.323-3.121,0.615-6.073,1.258-8.789   c0.299-1.358,0.532-2.672,0.894-3.91c0.372-1.238,0.743-2.417,1.111-3.534c0.672-2.248,1.627-4.185,2.426-5.869   c0.416-0.838,0.793-1.616,1.208-2.306c0.438-0.684,0.859-1.297,1.26-1.837C337.809,1256.33,339.098,1255.354,339.983,1255.695z"/>
	<path style="fill:#F04E23;" d="M521.741,1179.135c-0.485-3.763,48.917-13.225,110.342-21.134   c15.081-1.941,29.484-3.609,42.638-4.964c3.29-0.327,6.501-0.646,9.623-0.957c1.552-0.146,3.081-0.291,4.588-0.433   c1.388-0.123,2.722-0.304,4.004-0.514c2.548-0.422,4.904-1.062,6.575-1.866l0.595-0.297c0.163-0.105,0.329-0.205,0.5-0.302   c0.29-0.218,0.543-0.369,0.638-0.45c0.266-0.21,0.495-0.501,0.618-0.849c0.132-0.36,0.129-0.768,0.016-1.152   c-0.061-0.196-0.13-0.372-0.246-0.57l-0.282-0.396l-0.363-0.406c-1.048-1.089-2.558-1.977-4.033-2.532   c-1.43-0.525-3.079-0.8-4.64-0.891c-1.56-0.098-3.059-0.05-4.437,0.045c-2.761,0.202-5.03,0.526-6.623,0.582   c-1.596,0.07-2.523-0.096-2.684-0.553c-0.16-0.454,0.442-1.173,1.77-2.112c1.337-0.927,3.384-2.116,6.349-3.223   c1.485-0.544,3.212-1.055,5.216-1.381c1.996-0.321,4.269-0.467,6.901-0.045c2.554,0.462,5.234,1.379,7.85,3.291   c0.321,0.258,0.644,0.518,0.969,0.78c0.315,0.306,0.632,0.615,0.951,0.926c0.665,0.731,1.295,1.571,1.806,2.48   c1.021,1.82,1.58,4,1.381,6.228c-0.223,2.136-1.017,4.287-2.421,6.116c-0.704,0.97-1.48,1.683-2.208,2.337   c-0.378,0.297-0.757,0.595-1.138,0.895c-0.383,0.274-0.765,0.511-1.156,0.766c-3.114,1.91-6.279,2.962-9.482,3.793   c-1.602,0.402-3.223,0.746-4.856,1.014c-1.513,0.249-3.05,0.502-4.608,0.758c-3.099,0.49-6.286,0.995-9.551,1.511   c-13.069,2.021-27.424,4.057-42.505,5.998C572.413,1179.538,522.226,1182.898,521.741,1179.135z"/>
	<path style="fill:#F04E23;" d="M183.943,1131.176c-0.204,1.859-4.296,3.192-10.854,3.347c-3.276,0.086-7.149-0.171-11.403-0.786   c-4.247-0.642-8.87-1.659-13.609-3.114c-4.733-1.474-9.123-3.245-12.991-5.113c-3.859-1.894-7.201-3.869-9.856-5.789   c-5.325-3.83-7.95-7.24-7.069-8.89c0.904-1.697,5.075-1.363,11.128,0.062c3.027,0.722,6.549,1.678,10.398,2.822   c3.86,1.118,8.053,2.41,12.45,3.781c4.403,1.351,8.593,2.652,12.41,3.908c3.823,1.229,7.27,2.429,10.176,3.542   C180.524,1127.186,184.156,1129.265,183.943,1131.176z"/>
	<g>
		<g>
			
				<ellipse transform="matrix(0.9933 -0.1154 0.1154 0.9933 -129.2018 70.6668)" style="fill:#F04E23;" cx="545.974" cy="1151.663" rx="12.5" ry="3.435"/>
		</g>
		<g>
			
				<ellipse transform="matrix(0.9933 -0.1153 0.1153 0.9933 -128.4935 74.6432)" style="fill:#F04E23;" cx="580.74" cy="1147.626" rx="12.5" ry="3.435"/>
		</g>
		<g>
			
				<ellipse transform="matrix(0.9933 -0.1154 0.1154 0.9933 -127.806 78.6334)" style="fill:#F04E23;" cx="615.507" cy="1143.589" rx="12.5" ry="3.435"/>
		</g>
		<g>
			
				<ellipse transform="matrix(0.9933 -0.1154 0.1154 0.9933 -127.1084 82.6169)" style="fill:#F04E23;" cx="650.273" cy="1139.551" rx="12.5" ry="3.435"/>
		</g>
	</g>
	<g>
		<g>
			<path style="fill:#F04E23;" d="M438.033,1307.515c0.345,1.849-6.606,4.711-15.626,5.768c-1.627,0.189-3.206,0.312-4.703,0.365     l-0.558,0.016l-0.276,0.006l-0.069,0.001l-0.003-0.004l-0.008-0.011c-0.027-0.026-0.064-0.054-0.11-0.084     c-0.094-0.06-0.231-0.125-0.42-0.198c-0.16,0.025-0.328,0.185-0.521,0.47c-0.023,0.051-0.05,0.038-0.071,0.147     c-0.022,0.108-0.045,0.214-0.066,0.318c-0.048,0.209-0.095,0.41-0.14,0.603c-0.097,0.388-0.2,0.746-0.31,1.072     c-0.438,1.302-0.973,2.089-1.577,2.143c-0.603,0.054-1.203-0.638-1.755-1.93c-0.138-0.323-0.273-0.683-0.404-1.078     c-0.062-0.198-0.127-0.404-0.194-0.618c-0.031-0.107-0.062-0.217-0.094-0.328c-0.031-0.11-0.067-0.346-0.1-0.521     c-0.268-1.522-0.537-3.419-0.778-5.612c1.078-0.162,2.283-0.319,3.569-0.484c0.651-0.086,1.315-0.173,1.989-0.262l0.455-0.064     l0.263-0.045l0.533-0.089c1.434-0.234,2.96-0.453,4.544-0.637C430.363,1305.434,437.685,1305.634,438.033,1307.515z"/>
		</g>
		<g>
			<path style="fill:#F04E23;" d="M471.979,1299.108c0.623,1.785-4.291,5.097-11.087,6.903c-6.788,1.819-12.666,1.444-13.044-0.404     c-0.384-1.868,4.716-4.476,11.268-6.233C465.671,1297.633,471.355,1297.309,471.979,1299.108z"/>
		</g>
		<g>
			<path style="fill:#F04E23;" d="M503.466,1284.071c0.54,0.771-0.121,2.3-1.753,4.073c-1.625,1.773-4.231,3.754-7.393,5.388     c-6.352,3.281-12.28,3.883-12.952,2.133c-0.694-1.788,3.87-5.169,9.794-8.235     C497.096,1284.401,502.337,1282.531,503.466,1284.071z"/>
		</g>
		<g>
			<path style="fill:#F04E23;" d="M513.038,1314.641c-1.883,0.27-4.213-4.901-5.751-11.495c-1.521-6.603-1.621-12.335,0.211-12.873     c1.808-0.533,4.903,4.473,6.484,11.33C515.581,1308.462,514.912,1314.375,513.038,1314.641z"/>
		</g>
		<g>
			<path style="fill:#F04E23;" d="M512.649,1349.411c-0.926-0.245-1.388-1.785-1.598-4.024c-0.204-2.246-0.186-5.215-0.019-8.509     c0.347-6.555,1.287-12.128,3.207-12.31c1.851-0.189,4.026,5.42,3.654,12.675c-0.181,3.604-1.013,6.845-2.067,9.042     C514.774,1348.493,513.556,1349.652,512.649,1349.411z"/>
		</g>
		<g>
			<path style="fill:#F04E23;" d="M491.732,1376.157c-0.454-0.847,0.371-2.233,1.842-3.907c1.476-1.683,3.57-3.678,5.813-5.887     c2.242-2.21,4.236-4.252,5.893-5.723c1.652-1.459,3.011-2.313,3.871-1.879c0.832,0.418,0.99,2.102,0.234,4.476     c-0.743,2.361-2.49,5.377-5.175,8.018c-2.682,2.644-5.682,4.331-8.014,5.084C493.848,1377.096,492.172,1376.981,491.732,1376.157     z"/>
		</g>
		<g>
			<path style="fill:#F04E23;" d="M457.955,1379.463c0.302-0.913,1.872-1.271,4.097-1.362c2.234-0.095,5.129,0.047,8.282,0.155     c3.154,0.113,6,0.167,8.194,0.349c2.184,0.192,3.735,0.569,4.026,1.488c0.283,0.885-0.82,2.181-3.072,3.275     c-1.12,0.558-2.525,1.007-4.122,1.346c-1.599,0.309-3.392,0.47-5.265,0.408c-3.755-0.129-7.038-1.134-9.193-2.301     C458.733,1381.644,457.66,1380.349,457.955,1379.463z"/>
		</g>
		<g>
			<path style="fill:#F04E23;" d="M429.87,1359.373c0.747-0.599,2.268-0.046,4.184,1.164c1.923,1.211,4.255,3.068,6.741,5.189     c2.481,2.127,4.661,4.135,6.166,5.82c1.496,1.684,2.303,3.079,1.844,3.921c-0.448,0.824-2.123,0.917-4.45,0.179     c-2.322-0.729-5.264-2.33-8.027-4.7c-2.769-2.363-4.791-5.01-5.89-7.165C429.338,1361.617,429.137,1359.96,429.87,1359.373z"/>
		</g>
		<g>
			<path style="fill:#F04E23;" d="M415.062,1328.008c1.889-0.359,4.389,4.616,6.794,10.708c1.198,3.069,2.151,5.909,2.64,8.132     c0.483,2.219,0.477,3.838-0.342,4.332c-0.804,0.487-2.29-0.274-3.944-2.043c-1.653-1.761-3.439-4.552-4.753-7.917     c-1.32-3.363-1.896-6.621-1.889-9.031C413.578,1329.77,414.143,1328.202,415.062,1328.008z"/>
		</g>
	</g>
	
		<ellipse transform="matrix(0.2751 -0.9614 0.9614 0.2751 -560.2306 1166.9968)" style="fill:#F04E23;" cx="493.745" cy="954.999" rx="5.153" ry="17.72"/>
	
		<ellipse transform="matrix(0.0437 -0.999 0.999 0.0437 -694.0074 983.6443)" style="fill:#F04E23;" cx="166.818" cy="854.348" rx="40.049" ry="5.153"/>
	<path style="fill:#F04E23;" d="M820.837,673.445c-0.781,0.486-2.631-0.758-4.622-3.556c-1-1.391-1.981-3.181-2.855-5.267   c-0.848-2.094-1.572-4.489-2.026-7.064c-0.434-2.579-0.553-5.078-0.455-7.335c0.126-2.259,0.452-4.273,0.928-5.919   c0.94-3.303,2.268-5.093,3.166-4.897c0.953,0.203,1.337,2.272,1.672,5.34c0.16,1.51,0.35,3.306,0.562,5.301   c0.242,1.968,0.523,4.108,0.897,6.344c0.395,2.232,0.847,4.343,1.277,6.278c0.468,1.95,0.89,3.707,1.244,5.184   C821.336,670.856,821.667,672.935,820.837,673.445z"/>
	<path style="fill:#F04E23;" d="M773.482,654.47c-0.62-2.451,0.311-5.21,2.252-6.831c1.94-1.621,4.783-2.053,7.141-1.139   c2.152,0.835,3.861,2.764,4.367,5.016c0.507,2.252-0.231,4.757-1.921,6.329C781.661,661.249,774.718,659.356,773.482,654.47z"/>
	<path style="fill:#F04E23;" d="M827.405,595.894c-0.953-0.126-1.699-0.915-2.373-1.823c-0.67-0.928-1.281-2.003-1.851-3.215   c-0.585-1.205-1.038-2.355-1.34-3.459c-0.284-1.094-0.429-2.171,0.071-2.991c0.479-0.795,1.661-1.138,3.188-0.612   c1.508,0.503,3.256,1.957,4.28,4.099c1.024,2.142,1.058,4.416,0.503,5.905C829.333,595.316,828.325,596.02,827.405,595.894z"/>
	<path style="fill:#F04E23;" d="M835.451,595.42c-0.766-0.58-0.952-1.726-0.949-3.039c0.014-1.326,0.202-2.846,0.482-4.492   c0.267-1.648,0.58-3.148,0.995-4.407c0.422-1.243,0.968-2.267,1.881-2.569c0.883-0.295,2.026,0.293,2.912,1.773   c0.886,1.456,1.407,3.811,0.99,6.328c-0.419,2.517-1.673,4.577-2.982,5.668C837.463,595.798,836.191,595.985,835.451,595.42z"/>
	<path style="fill:#F04E23;" d="M906.298,719.892c-0.963-0.041-1.736-1.423-2.484-3.462c-0.745-2.05-1.52-4.762-2.418-7.73   c-0.91-2.965-1.778-5.648-2.303-7.766c-0.516-2.109-0.646-3.688,0.132-4.259c0.749-0.552,2.317,0.064,4.066,1.813   c1.743,1.732,3.588,4.642,4.678,8.21c1.084,3.57,1.176,7.014,0.694,9.423C908.185,718.547,907.227,719.933,906.298,719.892z"/>
	<path style="fill:#F04E23;" d="M592.916,577.916c-0.096,0.96-0.97,1.715-2.001,2.455c-1.053,0.734-2.296,1.476-3.664,2.28   c-1.358,0.821-2.601,1.563-3.748,2.14c-1.14,0.556-2.221,0.966-3.11,0.594c-0.854-0.351-1.332-1.594-0.885-3.359   c0.216-0.877,0.687-1.836,1.392-2.773c0.717-0.92,1.676-1.806,2.831-2.503c1.162-0.686,2.398-1.108,3.548-1.301   c1.159-0.175,2.227-0.134,3.101,0.093C592.147,575.988,593.014,576.998,592.916,577.916z"/>
	
		<ellipse transform="matrix(0.4493 -0.8934 0.8934 0.4493 -274.9506 905.9568)" style="fill:#F04E23;" cx="597.367" cy="675.997" rx="3.435" ry="4.472"/>
	<g>
		<g>
			<path style="fill:#FFFFFF;" d="M404.403,866.976c-1.81-0.527-1.676-6.457,0.862-13.049c2.527-6.597,6.404-11.092,8.101-10.268     c1.718,0.831,0.725,6.43-1.687,12.731C409.252,862.687,406.235,867.512,404.403,866.976z"/>
		</g>
		<g>
			<path style="fill:#FFFFFF;" d="M397.44,901.226c-1.878-0.174-2.872-6.018-1.65-12.971c1.21-6.956,4.13-12.117,5.956-11.641     c1.847,0.478,1.968,6.169,0.812,12.824C401.387,896.09,399.34,901.404,397.44,901.226z"/>
		</g>
		<g>
			<path style="fill:#FFFFFF;" d="M397.074,936.18c-1.877,0.185-3.957-5.369-4.067-12.427c-0.123-7.059,1.769-12.677,3.651-12.556     c1.905,0.12,3.099,5.688,3.218,12.442C399.981,930.393,398.973,935.996,397.074,936.18z"/>
		</g>
		<g>
			<path style="fill:#FFFFFF;" d="M403.395,970.549c-1.805,0.547-4.928-4.499-6.391-11.41c-1.475-6.908-0.681-12.785,1.189-13.022     c1.893-0.244,4.12,4.994,5.531,11.593C405.12,964.312,405.222,969.998,403.395,970.549z"/>
		</g>
		<g>
			<path style="fill:#FFFFFF;" d="M416.79,1002.795c-1.613,0.976-5.9-3.221-8.82-9.709c-2.932-6.476-3.307-12.414-1.526-13.015     c1.812-0.616,5.015,4.073,7.785,10.182C416.977,996.367,418.427,1001.812,416.79,1002.795z"/>
		</g>
		<g>
			<path style="fill:#FFFFFF;" d="M439.018,1029.593c-0.595,0.733-2.248,0.514-4.399-0.577c-2.148-1.084-4.776-3.065-7.189-5.716     c-2.42-2.646-4.15-5.425-5.048-7.647c-0.902-2.226-0.996-3.883-0.224-4.423c1.592-1.077,5.876,2.565,10.345,7.438     C436.942,1023.56,440.192,1028.089,439.018,1029.593z"/>
		</g>
		<g>
			<path style="fill:#FFFFFF;" d="M470.204,1044.784c-0.193,0.919-1.766,1.486-4.194,1.475c-2.421-0.007-5.683-0.634-9.032-2.003     c-3.348-1.372-6.106-3.205-7.841-4.883c-1.742-1.681-2.481-3.176-1.983-3.973c1.052-1.611,6.365,0.037,12.427,2.497     c3.046,1.245,5.755,2.506,7.703,3.674C469.225,1042.738,470.401,1043.847,470.204,1044.784z"/>
		</g>
		<g>
			<path style="fill:#FFFFFF;" d="M499.363,1043.99c0.271,0.901-0.542,2.059-2.193,3.095c-1.642,1.035-4.13,1.914-6.97,2.224     c-2.84,0.308-5.446-0.009-7.269-0.653c-1.83-0.643-2.883-1.581-2.826-2.521c0.057-0.953,1.18-1.733,2.874-2.336     c1.7-0.602,3.969-1.047,6.476-1.319c2.507-0.275,4.806-0.331,6.589-0.12C497.82,1042.572,499.089,1043.075,499.363,1043.99z"/>
		</g>
	</g>
	<g>
		<g>
			<path style="fill:#FFFFFF;" d="M197.125,957.506c1.376,1.283-1.453,6.55-6.871,11.171c-5.409,4.635-11.061,6.604-12.11,5.041     c-1.071-1.584,2.566-5.905,7.646-10.264C190.885,959.113,195.73,956.197,197.125,957.506z"/>
		</g>
		<g>
			<path style="fill:#FFFFFF;" d="M217.917,929.469c1.662,0.883,0.289,6.703-3.742,12.569c-4.017,5.876-8.948,9.257-10.371,8.026     c-1.451-1.246,0.926-6.377,4.704-11.91C212.305,932.635,216.231,928.566,217.917,929.469z"/>
		</g>
		<g>
			<path style="fill:#FFFFFF;" d="M230.641,896.975c1.839,0.41,2.065,6.388-0.285,13.116c-2.335,6.734-6.22,11.281-7.917,10.461     c-1.722-0.825-0.76-6.396,1.428-12.719C226.076,901.519,228.779,896.554,230.641,896.975z"/>
		</g>
		<g>
			<path style="fill:#FFFFFF;" d="M234.344,862.267c1.88-0.081,3.648,5.629,3.152,12.73c-0.48,7.103-3.015,12.518-4.867,12.179     c-1.882-0.338-2.436-5.965-1.988-12.65C231.112,867.843,232.433,862.343,234.344,862.267z"/>
		</g>
		<g>
			<path style="fill:#FFFFFF;" d="M228.902,827.792c1.792-0.575,5.002,4.478,6.367,11.469c1.381,6.987,0.33,12.873-1.545,13.025     c-1.906,0.161-3.895-5.133-5.197-11.7C227.249,834.015,227.079,828.369,228.902,827.792z"/>
		</g>
	</g>
	<path style="fill:#00AEE0;" d="M190.71,801.749c-0.2,0.667-1.491,1.006-3.702,0.848c-2.209-0.153-5.312-0.898-8.925-2.475   c-3.611-1.567-7.68-4.061-11.604-7.597c-3.923-3.522-7.643-8.145-10.47-13.633c-2.781-5.513-4.336-11.238-4.882-16.482   c-0.556-5.253-0.183-10.01,0.669-13.854c0.847-3.85,2.067-6.799,3.241-8.677c1.171-1.883,2.204-2.728,2.861-2.498   c1.421,0.501,0.877,5.037,1.154,11.86c0.228,6.793,1.616,16.079,6.139,24.97c4.538,8.883,11.237,15.462,16.6,19.637   C187.149,798.081,191.14,800.305,190.71,801.749z"/>
	<path style="fill:#00AEE0;" d="M380.949,845.659c0.426,0.542-0.469,2.136-2.682,4.415c-2.206,2.283-5.819,5.143-10.773,7.954   c-2.472,1.414-5.306,2.74-8.428,3.996c-3.146,1.18-6.575,2.326-10.291,3.137c-7.406,1.696-15.894,2.333-24.695,1.337   c-8.792-1.072-16.901-3.66-23.712-7.026c-3.426-1.651-6.496-3.56-9.283-5.438c-2.746-1.946-5.195-3.893-7.272-5.842   c-4.168-3.883-7.019-7.503-8.636-10.235c-1.625-2.73-2.126-4.488-1.586-4.917c1.208-0.969,6.021,3.751,14.715,9.415   c2.164,1.425,4.61,2.85,7.255,4.299c2.686,1.38,5.56,2.819,8.698,4.055c6.24,2.536,13.388,4.515,21.024,5.453   c7.645,0.858,15.058,0.59,21.715-0.43c3.338-0.475,6.468-1.208,9.401-1.928c2.909-0.797,5.618-1.615,8.054-2.5   C374.223,847.912,379.999,844.436,380.949,845.659z"/>
	<path style="fill:#00AEE0;" d="M484.556,770.776c0.681-0.117,1.569,0.917,2.374,3.053c0.811,2.13,1.407,5.389,1.299,9.477   c-0.045,2.044-0.336,4.274-0.826,6.647c-0.558,2.35-1.289,4.858-2.417,7.365c-2.187,5.03-5.742,10.168-10.665,14.39   c-4.97,4.166-10.62,6.833-15.94,8.167c-2.657,0.703-5.251,1.014-7.661,1.18c-2.421,0.096-4.669,0.018-6.693-0.272   c-4.05-0.563-7.168-1.684-9.137-2.833c-1.976-1.144-2.85-2.189-2.623-2.842c0.499-1.442,5.102-0.82,11.9-1.612   c1.699-0.183,3.53-0.511,5.457-0.917c1.917-0.476,3.942-0.999,5.982-1.786c4.095-1.509,8.295-3.811,12.052-6.948   c3.709-3.193,6.667-6.959,8.826-10.753c1.11-1.884,1.957-3.796,2.741-5.609c0.715-1.834,1.339-3.587,1.797-5.233   C482.913,775.676,483.051,771.033,484.556,770.776z"/>
	<path style="fill:#F04E23;" d="M561.918,457.396c-34,24-123,0-167-27c0,0.05-0.01,0.1-0.01,0.15c0.17-7.44,2.04-14.68,6.06-21.02   c3.49-5.49,8.5-10.22,10.21-16.49c2.69-9.86-3.95-20.18-12.48-25.81c-15.16-10-48.82-14.65-53.56-34.59   c6.84-0.3,12.83-1.38,17.78-4.24c93.25-53.84,139-17,163.21,53C550.328,451.396,595.918,433.396,561.918,457.396z"/>
	<path style="fill:#FFFFFF;" d="M501.903,394.234c-0.356-0.011-0.705-0.513-1.044-1.438c-0.17-0.462-0.337-1.031-0.5-1.696   c-0.154-0.667-0.32-1.43-0.556-2.281c-0.76-3.413-1.936-8.264-4.001-13.95c-0.458-1.438-1.155-2.874-1.755-4.398   c-0.288-0.768-0.693-1.508-1.05-2.281c-0.374-0.766-0.726-1.558-1.126-2.342c-0.422-0.773-0.851-1.559-1.288-2.358   c-0.22-0.397-0.424-0.806-0.659-1.203c-0.243-0.392-0.488-0.787-0.735-1.185c-0.498-0.792-0.972-1.612-1.499-2.413   c-0.547-0.787-1.102-1.585-1.664-2.393c-0.533-0.826-1.182-1.583-1.792-2.381c-0.625-0.786-1.212-1.616-1.913-2.366   c-0.673-0.771-1.353-1.55-2.04-2.337c-0.731-0.742-1.47-1.492-2.215-2.249c-3.036-2.961-6.417-5.76-10.135-8.24   c-3.756-2.422-7.67-4.408-11.596-6.013c-0.991-0.382-1.973-0.761-2.945-1.135c-0.995-0.316-1.981-0.63-2.957-0.94   c-0.967-0.344-1.962-0.552-2.932-0.813c-0.974-0.241-1.928-0.535-2.898-0.695c-0.965-0.193-1.917-0.384-2.857-0.573   c-0.945-0.164-1.886-0.271-2.81-0.413c-0.463-0.068-0.923-0.135-1.379-0.202c-0.457-0.057-0.914-0.082-1.366-0.125   c-0.906-0.082-1.799-0.163-2.676-0.242c-0.879-0.055-1.745-0.063-2.597-0.101c-0.851-0.02-1.692-0.097-2.511-0.055   c-1.638,0.058-3.232-0.01-4.733,0.143c-6.038,0.371-10.956,1.225-14.389,1.888c-0.875,0.123-1.641,0.275-2.314,0.399   c-0.676,0.115-1.264,0.188-1.755,0.217c-0.983,0.058-1.583-0.063-1.734-0.385s0.153-0.831,0.892-1.513   c0.369-0.341,0.847-0.726,1.43-1.152c0.58-0.435,1.27-0.897,2.088-1.328c0.811-0.45,1.726-0.931,2.741-1.442   c1.024-0.481,2.17-0.92,3.402-1.416c1.225-0.526,2.59-0.889,4.031-1.339c1.437-0.476,2.997-0.787,4.637-1.151   c1.636-0.406,3.384-0.577,5.203-0.857c0.91-0.153,1.845-0.183,2.798-0.264c0.953-0.064,1.927-0.153,2.918-0.189   c0.993-0.005,2.002-0.01,3.028-0.015c0.513,0.003,1.033-0.01,1.554,0.01c0.521,0.032,1.045,0.064,1.574,0.096   c1.057,0.074,2.135,0.122,3.221,0.231c1.083,0.143,2.181,0.287,3.293,0.433c1.118,0.121,2.226,0.383,3.356,0.6   c1.126,0.237,2.279,0.428,3.409,0.765c1.138,0.312,2.288,0.626,3.449,0.944c1.139,0.394,2.29,0.792,3.451,1.193   c4.605,1.718,9.218,3.969,13.627,6.82c4.371,2.908,8.274,6.243,11.685,9.782c0.831,0.904,1.654,1.801,2.469,2.689   c0.754,0.938,1.501,1.867,2.239,2.787c0.76,0.902,1.394,1.883,2.06,2.822c0.65,0.95,1.331,1.861,1.888,2.839   c0.577,0.961,1.147,1.911,1.709,2.848c0.533,0.952,1.006,1.922,1.495,2.862c0.24,0.472,0.479,0.94,0.716,1.405   c0.226,0.47,0.42,0.952,0.628,1.421c0.404,0.943,0.802,1.871,1.193,2.784c0.362,0.923,0.667,1.852,0.989,2.751   c0.305,0.907,0.65,1.776,0.872,2.672c0.468,1.78,1.008,3.452,1.287,5.114c0.32,1.649,0.656,3.204,0.792,4.712   c0.161,1.501,0.371,2.897,0.377,4.231c0.036,1.327,0.09,2.553,0.057,3.684c-0.064,1.135-0.142,2.166-0.231,3.089   c-0.069,0.922-0.218,1.739-0.386,2.444c-0.158,0.704-0.321,1.295-0.487,1.77C502.604,393.763,502.259,394.245,501.903,394.234z"/>
	<path style="fill:#FFFFFF;" d="M455.969,437.914c0.354-0.617,1.895-0.557,4.328,0.056c0.609,0.153,1.273,0.341,1.989,0.562   c0.723,0.203,1.508,0.423,2.351,0.661c1.678,0.479,3.518,1.146,5.613,1.718c1.031,0.316,2.112,0.646,3.238,0.991   c1.121,0.348,2.315,0.633,3.526,0.984c2.412,0.734,5.042,1.325,7.773,2.034c5.505,1.269,11.574,2.474,18.009,3.356   c6.443,0.823,12.616,1.239,18.262,1.447c2.82,0.026,5.514,0.14,8.034,0.059c1.26-0.024,2.487,0.012,3.66-0.032   c1.177-0.04,2.306-0.078,3.384-0.114c2.172-0.007,4.123-0.172,5.867-0.198c0.876-0.009,1.692-0.018,2.442-0.026   c0.749-0.027,1.44-0.036,2.067-0.025c2.509,0.042,4.012,0.385,4.194,1.072c0.181,0.688-0.983,1.659-3.299,2.838   c-0.579,0.295-1.229,0.602-1.948,0.921c-0.722,0.303-1.52,0.578-2.379,0.879c-1.723,0.58-3.695,1.268-5.93,1.754   c-1.119,0.255-2.29,0.522-3.511,0.801c-1.226,0.262-2.515,0.431-3.849,0.647c-2.666,0.464-5.543,0.68-8.578,0.918   c-6.07,0.322-12.792,0.169-19.77-0.725c-6.97-0.953-13.5-2.556-19.277-4.446c-2.868-1.02-5.59-1.977-8.043-3.119   c-1.231-0.556-2.432-1.055-3.548-1.626c-1.106-0.587-2.168-1.15-3.182-1.688c-2.031-1.051-3.756-2.229-5.269-3.237   c-0.751-0.515-1.45-0.989-2.068-1.469c-0.611-0.495-1.159-0.961-1.641-1.396C456.487,439.772,455.615,438.531,455.969,437.914z"/>
	<path style="fill:#00AEE0;" d="M286.606,360.377c0.166,1.543-6.276,3.025-15.455,7.33c-2.298,1.063-4.736,2.367-7.292,3.827   c-2.519,1.534-5.18,3.195-7.795,5.192c-5.269,3.928-10.503,8.931-15.047,14.894c-4.479,6.013-7.844,12.423-10.167,18.571   c-1.198,3.065-2.062,6.081-2.842,8.925c-0.699,2.86-1.28,5.563-1.668,8.065c-1.606,10.011-1.255,16.611-2.784,16.877   c-0.678,0.123-1.662-1.383-2.622-4.355c-0.967-2.966-1.768-7.428-1.864-13.031c-0.059-2.801,0.14-5.872,0.543-9.159   c0.484-3.27,1.138-6.768,2.235-10.347c2.114-7.172,5.717-14.753,10.937-21.748c5.284-6.947,11.577-12.5,17.888-16.51   c3.138-2.041,6.32-3.635,9.33-5.001c3.048-1.293,5.946-2.332,8.654-3.048c5.412-1.452,9.921-1.913,13.039-1.801   C284.818,359.161,286.537,359.692,286.606,360.377z"/>
	<path style="fill:#00AEE0;" d="M404.223,767.497c-0.657,0.273-2.897-3.502-6.395-10.587c-0.875-1.771-1.828-3.749-2.854-5.922   c-1.002-2.183-2.017-4.583-3.126-7.158c-2.182-5.162-4.741-11.021-7.178-17.645c-1.243-3.304-2.546-6.767-3.903-10.374   c-1.338-3.616-2.576-7.429-3.928-11.356c-2.757-7.839-5.287-16.347-7.997-25.29c-5.171-17.955-10.167-37.908-14.334-59.079   c-4.07-21.19-6.915-41.562-8.849-60.146c-0.84-9.307-1.682-18.143-2.063-26.444c-0.218-4.147-0.499-8.147-0.613-12   c-0.093-3.853-0.183-7.551-0.268-11.081c-0.223-7.054-0.046-13.445,0.043-19.049c0.064-2.803,0.106-5.409,0.216-7.808   c0.137-2.399,0.28-4.591,0.427-6.561c0.588-7.88,1.251-12.219,1.962-12.212c0.711,0.007,1.405,4.355,2.049,12.185   c0.161,1.958,0.319,4.133,0.473,6.512c0.194,2.378,0.405,4.961,0.632,7.736c0.458,5.548,0.79,11.866,1.475,18.831   c0.295,3.482,0.604,7.131,0.926,10.933c0.321,3.801,0.797,7.743,1.196,11.83c0.743,8.18,1.893,16.882,2.979,26.045   c2.426,18.299,5.515,38.35,9.531,59.261c4.113,20.892,8.762,40.639,13.37,58.514c2.427,8.903,4.622,17.401,6.998,25.264   c1.162,3.938,2.198,7.772,3.324,11.416c1.126,3.646,2.207,7.144,3.238,10.483c1.974,6.714,4.034,12.696,5.688,18.011   c0.83,2.658,1.602,5.132,2.313,7.41c0.749,2.264,1.417,4.34,2.001,6.215C403.894,762.932,404.88,767.224,404.223,767.497z"/>
	<path style="fill:#00AEE0;" d="M191.379,704.391c-0.128-0.332,0.557-1.009,1.955-1.986c0.699-0.488,1.577-1.051,2.621-1.682   c0.523-0.309,1.087-0.642,1.69-0.998c0.593-0.372,1.2-0.815,1.857-1.25c1.309-0.881,2.767-1.838,4.365-2.863   c1.555-1.101,3.182-2.384,4.967-3.684c0.444-0.327,0.897-0.66,1.356-0.998c0.448-0.354,0.88-0.749,1.331-1.128   c0.898-0.765,1.824-1.553,2.777-2.365c1.964-1.542,3.77-3.498,5.782-5.391c0.496-0.481,0.998-0.968,1.505-1.46   c0.475-0.527,0.955-1.06,1.441-1.598c0.973-1.071,1.967-2.166,2.981-3.283c0.524-0.542,0.989-1.148,1.467-1.752   c0.48-0.602,0.964-1.21,1.453-1.824c0.49-0.612,0.984-1.229,1.482-1.852c0.5-0.621,1.013-1.239,1.462-1.92   c1.842-2.682,3.883-5.346,5.621-8.348c0.455-0.735,0.913-1.476,1.375-2.221c0.462-0.745,0.942-1.485,1.344-2.282   c0.846-1.564,1.704-3.15,2.573-4.755l0.65-1.208l0.586-1.252c0.393-0.836,0.788-1.678,1.185-2.524   c0.399-0.845,0.8-1.694,1.203-2.549c0.417-0.847,0.725-1.751,1.097-2.631c0.706-1.776,1.459-3.554,2.156-5.373   c0.63-1.844,1.266-3.707,1.908-5.585c2.402-7.566,4.313-15.579,5.514-23.903c2.233-16.764,1.819-33.058-0.026-47.733   c-0.24-1.835-0.476-3.648-0.71-5.437c-0.292-1.783-0.581-3.542-0.865-5.275c-0.142-0.868-0.283-1.729-0.422-2.584   c-0.168-0.851-0.334-1.695-0.499-2.532c-0.327-1.678-0.648-3.329-0.964-4.952c-1.418-6.465-2.846-12.483-4.351-17.937   c-2.973-10.918-5.773-19.699-7.638-25.816c-1.861-6.12-2.694-9.622-2.026-9.917c0.633-0.28,2.708,2.678,5.737,8.395   c3.031,5.714,6.927,14.237,10.877,25.15c1.993,5.45,3.88,11.535,5.711,18.137c0.415,1.663,0.837,3.354,1.266,5.073   c0.213,0.861,0.427,1.728,0.643,2.602c0.186,0.882,0.373,1.77,0.562,2.665c0.371,1.792,0.747,3.611,1.129,5.454   c0.313,1.859,0.63,3.743,0.951,5.651c1.157,7.651,2.105,15.765,2.239,24.242c0.181,8.468-0.208,17.277-1.407,26.225   c-1.291,8.979-3.423,17.594-6.143,25.683c-0.728,2.005-1.45,3.994-2.165,5.962c-0.789,1.94-1.639,3.834-2.448,5.72   c-0.423,0.935-0.783,1.891-1.254,2.792c-0.459,0.906-0.915,1.807-1.369,2.703c-0.455,0.895-0.907,1.784-1.357,2.668l-0.674,1.321   l-0.741,1.276c-0.996,1.689-1.979,3.356-2.95,5.002c-0.466,0.833-1.012,1.611-1.542,2.392c-0.53,0.78-1.056,1.554-1.578,2.322   c-2.008,3.125-4.34,5.897-6.471,8.648c-0.521,0.698-1.108,1.334-1.683,1.971c-0.574,0.637-1.142,1.268-1.706,1.893   c-0.564,0.623-1.123,1.24-1.677,1.852c-0.553,0.611-1.092,1.223-1.693,1.77c-1.169,1.119-2.314,2.215-3.435,3.287   c-0.561,0.533-1.116,1.061-1.665,1.582c-0.574,0.495-1.162,0.963-1.732,1.436c-2.314,1.854-4.408,3.734-6.661,5.179   c-1.097,0.753-2.163,1.485-3.197,2.194c-0.52,0.348-1.019,0.708-1.534,1.027c-0.528,0.301-1.047,0.598-1.557,0.889   c-2.049,1.146-3.923,2.249-5.71,3.147c-1.832,0.824-3.507,1.556-5.017,2.193c-0.758,0.313-1.461,0.629-2.146,0.871   c-0.698,0.212-1.351,0.41-1.957,0.594c-1.215,0.354-2.25,0.626-3.096,0.812C192.445,704.692,191.508,704.723,191.379,704.391z"/>
	<path style="fill:#00AEE0;" d="M1039.048,194.396c-34.13,13-160.13,64-97.13,99c3.02,1.68,5.97,3.11,8.84,4.32   c-32.48-1.5-53.05-21.02-66.84-77.65c-18.67-76.67,114.67-118.67,77.33-152.67c-29.28-26.66-75.87,32.02-105.87,79.08   c11.03-30.66,25.23-63.67,54.81-85.08c68.86-49.84,145.73-44,182.73,21S1073.178,181.396,1039.048,194.396z"/>
	<path style="fill:#F04E23;" d="M1137.918,365.396c-54.87-7.74-72.82,19.6-68.39,32.68c-30.71-45.91,43.42-34.68,54.39-62.01   c6.33-15.78-19.33-45.34-71.33-33.41c-38.27,8.771-54.04,4.17-64.56-0.46c36.93-6.22,68.72-39.48,128.89-22.8   C1199.918,302.396,1182.588,371.696,1137.918,365.396z"/>
	<path style="fill:#F04E23;" d="M1165.338,495.356c-43.33,131.79-147.58-64.42-153.7,3.29l-0.01-0.01   c1.62-27.24,20.96-59.91,46.29-47.91c25.33,12,60,41.34,70,26.67c8.55-12.55,5.4-43.83-8.2-64.94   C1166.558,430.926,1171.448,476.736,1165.338,495.356z"/>
	<path style="fill:#04294F;" d="M772.868,184.226c-1.32-26.04-7.717-81.802-43.433-63.83c-37.517,18.879-3.517,111-24.187,135   c-20.64,23.98-50.35-8.31-57.12-39.16c-0.01-0.03-0.01-0.06-0.02-0.09c-9.19-49.53-8.14-104.87,67.81-130.75   C798.888,57.126,772.868,134.156,772.868,184.226z"/>
	<path style="fill:#F04E23;" d="M723.047,271.262c-0.737,4.009-1.477,8.087-1.023,12.138c0.454,4.05,2.286,8.143,5.699,10.371   c5.462,3.566,13.278,1.059,17.411-3.987c4.133-5.047,5.343-11.858,5.709-18.371c0.829-14.741-1.975-29.673-8.094-43.11   c-1.252-2.749-2.901-5.673-5.755-6.665c-7.922-2.751-7.605,15.129-8.356,19.215C726.775,250.989,724.911,261.125,723.047,271.262z"/>
	<path style="fill:#04294F;" d="M889.401,305.364c6.058,12.025,12.186,26.254,6.354,38.391c-4.877,10.149-17.313,15.18-28.475,13.7   c-11.162-1.481-20.987-8.377-28.528-16.738c-20.494-22.722-25.796-57.945-12.899-85.693c3.113-6.697,7.366-13.144,13.6-17.104   c15.283-9.708,27.392,1.359,28.031,16.585C868.217,271.966,881.639,289.957,889.401,305.364z"/>
	<path style="fill:#00AEE0;" d="M820.837,517.188c0.083,1.339-14.557,3.731-38.491,4.399c-23.898,0.653-57.125-0.852-93.177-7.184   c-4.179-0.701-8.293-1.506-12.349-2.305c-1.013-0.204-2.027-0.386-3.03-0.606c-0.926-0.199-1.848-0.397-2.767-0.595l-0.108-0.063   c-0.014,0.016-0.031,0.045-0.048,0.093c-0.043,1.674-0.086,3.334-0.129,4.979c-0.101,3.674-0.2,7.283-0.297,10.818   c-0.236,7.071-0.463,13.849-0.678,20.274c-0.486,12.849-1.035,24.284-1.62,33.82c-1.172,19.07-2.491,30.541-3.749,30.522   c-1.258-0.019-2.244-11.522-2.862-30.619c-0.309-9.548-0.526-20.995-0.638-33.853c-0.028-6.429-0.058-13.21-0.089-20.285   c0.005-3.537,0.011-7.147,0.017-10.822c0.049-5.688,0.098-11.477,0.148-17.355c3.855,0.794,7.743,1.594,11.66,2.401   c1.058,0.216,2.12,0.433,3.186,0.651c0.987,0.208,1.985,0.378,2.982,0.571c3.991,0.756,8.034,1.532,12.14,2.22   c35.406,6.217,67.916,8.84,91.506,10.05C806.04,515.496,820.755,515.688,820.837,517.188z"/>
	
		<ellipse transform="matrix(0.1508 -0.9886 0.9886 0.1508 302.5827 1398.2432)" style="fill:#00AEE0;" cx="965.163" cy="522.998" rx="20.553" ry="5.153"/>
	
		<ellipse transform="matrix(0.1574 -0.9875 0.9875 0.1574 281.0571 1368.2194)" style="fill:#00AEE0;" cx="942.32" cy="519.407" rx="18.906" ry="5.153"/>
	
		<ellipse transform="matrix(0.1864 -0.9825 0.9825 0.1864 237.5101 1326.7921)" style="fill:#00AEE0;" cx="919.863" cy="519.989" rx="19.678" ry="5.153"/>
	<path style="fill:#00AEE0;" d="M989.193,633.914c2.87,0.591,0.07,24.266,0.234,53.336c0.014,1.818,0.028,3.615,0.042,5.386   c0.022,1.194,0.044,2.379,0.065,3.555c0.053,1.755,0.105,3.496,0.157,5.222c0.024,0.855,0.047,1.706,0.07,2.553l0.034,1.261   c0,0.102,0.011,0.215,0.002,0.308l-0.321-0.025l-0.64-0.05c-1.694-0.134-3.372-0.267-5.033-0.399   c-1.638-0.134-3.259-0.268-4.861-0.399c-0.876-0.088-1.742-0.176-2.598-0.262c-6.389-0.679-12.133-1.433-16.947-2.215   c-9.628-1.564-15.537-3.242-15.444-4.662c0.093-1.42,6.17-2.313,15.92-2.61c4.875-0.148,10.668-0.148,17.091,0.011   c0.746,0.019,1.501,0.037,2.265,0.056c0.051-0.025,0.088-0.05,0.114-0.074c0.062-0.038,0.058-0.092,0.002-0.169   c-0.018-0.029-0.034-0.048-0.048-0.061c-0.003,0.4-0.05-0.986-0.08-1.814c-0.062-1.835-0.083-3.699-0.097-5.585   c-0.052-15.098,1.755-28.707,3.979-38.323C985.318,639.318,987.827,633.648,989.193,633.914z"/>
</g>

</g>
</g>
</g>

<!-- ITEM 2 -->
<g transform="translate(1371.0 769.0) rotate(0.0 16.5 16.0) scale(0.132 0.13108736973192633)">
<g transform="translate(-0.0 -0.0)">
<g clip-path="url(#clipPathId-collage-item-2)">
		<defs>
			<clipPath id="clipPathId-collage-item-2">
				<rect x="0.0" y="0.0" width="250.0" height="244.112"/>
			</clipPath>
		</defs>
<title>circle_2 copy 3</title><g id="Layer_2-i2" data-name="Layer 2"><g id="circle_2_copy_3-i2" data-name="circle_2 copy 3"><path d="M250,122c0,67.379-56.006,119.593-125,122C39,247,0,189.379,0,122S45.964,0,115,0C209,0,250,54.621,250,122Z" fill="#f04e23"/></g></g>
</g>
</g>
</g>

<!-- ITEM 3 -->
<g transform="translate(991.0 144.0) rotate(0.0 11.5 11.0) scale(0.092 0.09012256669069935)">
<g transform="translate(-0.0 -0.0)">
<g clip-path="url(#clipPathId-collage-item-3)">
		<defs>
			<clipPath id="clipPathId-collage-item-3">
				<rect x="0.0" y="0.0" width="250.0" height="244.112"/>
			</clipPath>
		</defs>
<title>circle_2 copy 3</title><g id="Layer_2-i3" data-name="Layer 2"><g id="circle_2_copy_3-i3" data-name="circle_2 copy 3"><path d="M250,122c0,67.379-56.006,119.593-125,122C39,247,0,189.379,0,122S45.964,0,115,0C209,0,250,54.621,250,122Z" fill="#ffb400"/></g></g>
</g>
</g>
</g>

<!-- ITEM 4 -->
<g transform="translate(1356.0 393.0) rotate(0.0 9.5 9.5) scale(0.076 0.07783312577833126)">
<g transform="translate(-0.0 -0.0)">
<g clip-path="url(#clipPathId-collage-item-4)">
		<defs>
			<clipPath id="clipPathId-collage-item-4">
				<rect x="0.0" y="0.0" width="250.0" height="244.112"/>
			</clipPath>
		</defs>
<title>circle_2 copy 3</title><g id="Layer_2-i4" data-name="Layer 2"><g id="circle_2_copy_3-i4" data-name="circle_2 copy 3"><path d="M250,122c0,67.379-56.006,119.593-125,122C39,247,0,189.379,0,122S45.964,0,115,0C209,0,250,54.621,250,122Z" fill="#f04e23"/></g></g>
</g>
</g>
</g>

<!-- ITEM 5 -->
<g transform="translate(1371.0 450.0) rotate(0.0 17.0 16.5) scale(0.136 0.13518385003604902)">
<g transform="translate(-0.0 -0.0)">
<g clip-path="url(#clipPathId-collage-item-5)">
		<defs>
			<clipPath id="clipPathId-collage-item-5">
				<rect x="0.0" y="0.0" width="250.0" height="244.112"/>
			</clipPath>
		</defs>
<title>circle_2 copy 3</title><g id="Layer_2-i5" data-name="Layer 2"><g id="circle_2_copy_3-i5" data-name="circle_2 copy 3"><path d="M250,122c0,67.379-56.006,119.593-125,122C39,247,0,189.379,0,122S45.964,0,115,0C209,0,250,54.621,250,122Z" fill="#ffb400"/></g></g>
</g>
</g>
</g>

<!-- ITEM 6 -->
<g transform="translate(898.0 76.0) rotate(0.0 18.0 18.0) scale(0.144 0.14747329094841713)">
<g transform="translate(-0.0 -0.0)">
<g clip-path="url(#clipPathId-collage-item-6)">
		<defs>
			<clipPath id="clipPathId-collage-item-6">
				<rect x="0.0" y="0.0" width="250.0" height="244.112"/>
			</clipPath>
		</defs>
<title>circle_2 copy 3</title><g id="Layer_2-i6" data-name="Layer 2"><g id="circle_2_copy_3-i6" data-name="circle_2 copy 3"><path d="M250,122c0,67.379-56.006,119.593-125,122C39,247,0,189.379,0,122S45.964,0,115,0C209,0,250,54.621,250,122Z" fill="#ffb400"/></g></g>
</g>
</g>
</g>

<!-- ITEM 7 -->
<g transform="translate(265.0 401.0) rotate(0.0 16.5 16.5) scale(0.132 0.13518385003604902)">
<g transform="translate(-0.0 -0.0)">
<g clip-path="url(#clipPathId-collage-item-7)">
		<defs>
			<clipPath id="clipPathId-collage-item-7">
				<rect x="0.0" y="0.0" width="250.0" height="244.112"/>
			</clipPath>
		</defs>
<title>circle_2 copy 3</title><g id="Layer_2-i7" data-name="Layer 2"><g id="circle_2_copy_3-i7" data-name="circle_2 copy 3"><path d="M250,122c0,67.379-56.006,119.593-125,122C39,247,0,189.379,0,122S45.964,0,115,0C209,0,250,54.621,250,122Z" fill="#ffb400"/></g></g>
</g>
</g>
</g>

<!-- ITEM 8 -->
<g transform="translate(288.0 309.0) rotate(0.0 8.5 8.0) scale(0.068 0.06554368486596317)">
<g transform="translate(-0.0 -0.0)">
<g clip-path="url(#clipPathId-collage-item-8)">
		<defs>
			<clipPath id="clipPathId-collage-item-8">
				<rect x="0.0" y="0.0" width="250.0" height="244.112"/>
			</clipPath>
		</defs>
<title>circle_2</title><g id="Layer_2-i8" data-name="Layer 2"><g id="circle_2-i8"><path d="M250,122c0,67.379-56.006,119.593-125,122C39,247,0,189.379,0,122S45.964,0,115,0C209,0,250,54.621,250,122Z" fill="#ffb400"/></g></g>
</g>
</g>
</g>

              </svg>